<svg width="135" height="122" viewBox="0 0 135 122" fill="none" xmlns="http://www.w3.org/2000/svg">
<g clip-path="url(#clip0_730_16520)">
<path style="mix-blend-mode:screen" opacity="0.25" d="M86.5137 92.0916C92.2402 114.206 117.161 104.582 105.965 87.8456C94.7679 71.1097 89.5713 53.2365 98.6142 53.8836C107.657 54.5306 131.773 71.2378 114.781 47.896C102.983 31.6914 92.7927 30.9011 93.0135 23.5622C93.2343 16.2232 106.175 26.5647 111.165 35.7718C116.155 44.9789 127.963 31.7748 117.138 24.501C106.313 17.2272 106.868 21.9148 103.466 16.5029C100.064 11.0911 107.538 17.5006 108.24 10.8604C108.24 10.8604 106.828 14.6288 104.766 11.9524C102.704 9.27602 99.9196 8.18682 99.8293 12.9803C99.739 17.7738 101.887 16.5902 108.502 21.5038C115.116 26.4174 117.406 35.1581 111.923 32.4771C106.44 29.796 83.9569 4.55121 76.4199 6.23409C68.883 7.91697 78.8263 27.0261 88.9151 32.8039C99.004 38.5818 89.7988 39.7952 84.9511 41.4524C80.1034 43.1097 80.2684 53.5387 90.4325 52.3221C106.632 50.3804 108.417 52.4624 107.733 54.1311C107.509 54.6218 107.101 55.0048 106.597 55.1972C106.092 55.3896 105.533 55.376 105.038 55.1593C101.419 53.6523 90.7646 50.208 79.7806 56.2493C65.2563 64.2381 80.3363 72.8637 90.548 75.081C100.76 77.2983 117.233 103.119 98.7497 93.1978C80.2663 83.2765 86.8391 72.5744 68.8702 66.6425C50.9014 60.7107 47.4293 65.2942 48.6369 69.5482C49.8446 73.8022 53.2084 80.853 64.888 83.0684C76.5677 85.2837 74.3201 90.7541 64.4743 84.7263C54.6285 78.6985 44.9105 76.3542 38.2167 80.3085C31.5229 84.2628 43.773 100.328 33.7584 100.438C23.7438 100.547 32.9296 104.189 39.4758 101.701C46.022 99.2133 37.0412 94.0745 36.9761 87.1878C36.9109 80.3011 56.5018 80.4626 67.8152 87.1528C79.1286 93.8429 87.2387 95.4367 82.9565 84.2453C78.6744 73.0539 53.3772 71.1117 56.9503 66.2266C60.5233 61.3415 80.7832 69.9741 86.5137 92.0916ZM85.379 18.6571C77.7404 15.2045 76.8792 6.39152 84.3636 9.78333C91.7701 13.1648 93.0177 22.1097 85.379 18.6571ZM89.556 51.972C81.6247 51.4698 95.1312 41.9249 97.621 45.482C100.111 49.0391 95.6461 52.3605 89.556 51.972ZM74.2651 63.7396C73.8648 58.3541 82.1427 53.0632 86.7389 64.956C91.3352 76.8489 74.7929 70.8812 74.2651 63.7396Z" fill="url(#paint0_linear_730_16520)"/>
<path d="M54.0788 93.8025C48.4454 92.5665 41.6304 90.5861 41.8768 78.5575L41.0069 78.573L39.9193 92.591L53.7015 95.0413L54.0788 93.8025Z" fill="#673493"/>
<path d="M42.3445 92.0308C45.5108 91.0239 44.4292 93.2556 43.1348 94.1902C43.1348 94.1902 44.9318 93.7079 47.575 91.0975C50.2181 88.4872 61.9221 79.066 65.8826 79.3069C66.1161 78.3123 66.643 77.4104 67.395 76.7178C68.6719 75.5172 69.5773 74.5817 69.9867 73.3382C69.9867 73.3382 68.3284 75.183 67.3239 74.7537C66.3195 74.3245 82.2752 55.4937 116.44 39.859C116.44 39.859 83.1465 42.9449 57.5164 66.5171C57.5164 66.5171 62.0933 65.1683 60.3903 67.3754C58.6872 69.5824 59.2123 70.6557 59.4294 71.6618C59.6466 72.6679 55.9726 75.8801 55.3993 75.6887C54.826 75.4972 55.3993 74.059 55.3993 74.059C54.6651 74.7592 54.0629 75.5855 53.6214 76.4984C52.8766 78.0309 31.4001 94.6871 31.4001 94.6871L29.5042 97.1149C28.9975 98.0424 29.4773 101.623 29.4773 101.623L34.0389 101.133C34.0389 101.133 39.1747 93.0382 42.3445 92.0308ZM60.4043 72.0628C59.8769 69.665 78.2793 58.4194 79.5279 60.3843C80.7766 62.3493 60.652 73.2023 60.4043 72.0628ZM59.2351 76.144C59.0445 74.0342 64.9949 72.2146 65.0392 73.6019C65.0835 74.9891 59.3469 77.3725 59.2351 76.144Z" fill="url(#paint1_linear_730_16520)"/>
<path style="mix-blend-mode:screen" opacity="0.76" d="M53.6223 76.5054C53.168 77.4434 44.9453 84.0473 38.632 89.0309L40.732 90.2862C40.732 90.2862 52.8982 78.993 53.6223 76.5054Z" fill="url(#paint2_linear_730_16520)"/>
<path style="mix-blend-mode:multiply" opacity="0.57" d="M44.2755 91.9641C44.707 92.4268 43.979 93.5793 43.1491 94.1878C43.1491 94.1878 44.9497 93.705 47.5893 91.0952C50.2288 88.4853 61.9364 79.0636 65.8969 79.3045C61.7761 77.9257 53.054 84.3709 44.2755 91.9641Z" fill="url(#paint3_linear_730_16520)"/>
<path style="mix-blend-mode:multiply" opacity="0.57" d="M42.3444 92.0308C44.8058 91.2474 44.6936 92.4109 43.9162 93.4255L44.7104 93.4138C45.748 92.7498 46.7087 91.9729 47.5749 91.0975C47.7268 90.9445 47.9117 90.7685 48.123 90.574C45.7606 91.2158 42.5428 90.1686 42.5428 90.1686C42.5428 90.1686 42.1151 87.4113 42.9589 85.5885C41.4009 86.8305 39.8358 88.0735 38.3771 89.2247L40.3279 93.2931C40.9117 92.7456 41.5966 92.3168 42.3444 92.0308Z" fill="url(#paint4_linear_730_16520)"/>
<g style="mix-blend-mode:multiply" opacity="0.57">
<path d="M55.2302 79.4048C55.2302 79.4048 42.2155 89.4763 36.7252 92.1754C31.235 94.8746 38.527 93.725 38.527 93.725C38.527 93.725 49.1514 84.6732 55.2302 79.4048Z" fill="#900040"/>
</g>
<g style="mix-blend-mode:multiply" opacity="0.57">
<path d="M30.0241 98.0548C31.6992 96.5959 34.4465 96.9646 34.4465 96.9646C34.4785 97.7811 34.2863 98.5908 33.8906 99.3061C33.4949 100.021 32.9109 100.615 32.2018 101.023C29.7091 102.507 31.9684 101.783 32.3032 101.712C32.638 101.641 36.1314 100.56 36.1314 100.56C36.1314 100.56 36.6417 97.8792 36.5342 97.5684C36.437 96.881 36.3836 96.1881 36.3742 95.494C36.3742 95.494 35.3965 94.3821 34.7245 94.4338C33.8115 94.4536 32.9092 94.6343 32.0591 94.9677C31.0089 95.4126 29.4143 97.2698 29.4143 97.2698L30.0241 98.0548Z" fill="#900040"/>
</g>
<g style="mix-blend-mode:multiply" opacity="0.57">
<path d="M29.491 97.1242C28.9879 98.0513 29.4641 101.633 29.4641 101.633L34.0257 101.143C35.5194 98.8154 37.1964 96.6108 39.041 94.5498C36.9738 94.7524 35.3044 93.8548 34.0019 92.66C32.4048 93.9078 31.3941 94.6954 31.3941 94.6954L29.491 97.1242Z" fill="#900040"/>
</g>
<path d="M22.7616 115.058L23.231 114.444C23.231 114.444 18.5644 114.245 18.769 113.166C18.9736 112.087 26.2298 105.386 28.1981 103.648C29.8503 102.182 32.798 102.307 33.5329 102.362C33.5756 102.356 33.6215 102.371 33.6616 102.372L33.7114 102.365C40.0511 102.843 40.8618 100.771 41.44 96.4032L41.4729 96.1334C46.2838 96.3 51.4663 96.5716 52.8426 96.5142C55.2086 96.4164 55.0015 95.9968 58.7646 89.8351C58.7646 89.8351 55.1334 93.8069 54.0488 93.7959C53.255 93.7857 47.1166 92.1558 41.7768 91.087C41.9144 85.6514 41.6812 79.3266 41.8468 78.5509C42.0764 77.4936 46.7512 74.8346 46.7512 74.8346C39.9023 77.1421 39.5355 76.8477 38.9193 79.1306C38.5586 80.4577 37.6839 85.5518 36.7762 90.2733L36.5178 90.246C32.1193 89.8444 29.9149 90.1762 28.9821 96.5056C28.7026 97.2981 28.7546 100.194 27.0586 101.758C26.3164 102.444 16.4556 110.215 15.6153 109.395C14.775 108.575 15.3676 104.872 15.3676 104.872L14.7508 105.25C12.497 110.703 14.6092 113.818 14.6092 113.818C17.9265 116.06 22.7616 115.058 22.7616 115.058ZM33.239 96.0932C33.8123 96.0378 34.6334 96.0113 35.6178 96.008C35.3965 96.9734 35.1872 97.7737 35.0064 98.3229C34.4684 99.952 33.0257 100.792 31.6367 101.207C30.8095 100.353 31.2905 99.5958 31.2905 99.5958C30.6018 99.6573 30.1046 99.1933 29.7493 98.6068C30.4782 97.4106 31.5886 96.2635 33.2411 96.1074L33.239 96.0932Z" fill="url(#paint5_linear_730_16520)"/>
<g opacity="0.52">
<g style="mix-blend-mode:multiply" opacity="0.57">
<path d="M50.3344 88.6587C50.5482 88.482 50.7723 88.3002 50.9988 88.1108C48.9162 87.2704 47.0137 85.5795 46.9265 82.3947C46.1217 83.0503 45.2763 83.7265 44.4193 84.4225C44.9105 86.6731 46.5915 88.4147 50.3344 88.6587Z" fill="#900040"/>
</g>
<g style="mix-blend-mode:multiply" opacity="0.57">
<path d="M54.7861 85.1758L55.3408 84.7711C53.0087 83.5936 51.422 81.4316 52.2072 77.9514C51.8855 78.2346 51.5288 78.5521 51.1321 78.8936C51.1619 80.1636 51.5125 81.4053 52.1514 82.5036C52.7902 83.6018 53.6964 84.521 54.7861 85.1758Z" fill="#900040"/>
</g>
<g style="mix-blend-mode:multiply" opacity="0.57">
<path d="M51.3799 87.8119L51.91 87.389C50.1928 87.228 48.7657 85.6559 49.4204 80.351C48.9901 80.712 48.533 81.0878 48.0632 81.4764C48.0844 84.3116 48.9041 86.9422 51.3799 87.8119Z" fill="#900040"/>
</g>
<g style="mix-blend-mode:multiply" opacity="0.57">
<path d="M64.4515 70.6213C63.804 70.938 63.2051 71.2149 62.6823 71.4407C63.7826 72.8177 65.5778 73.508 68.4339 72.8626C68.6089 72.6445 68.8038 72.4125 69.0209 72.1592C66.9611 72.6838 65.4821 71.9687 64.4515 70.6213Z" fill="#900040"/>
</g>
<g style="mix-blend-mode:multiply" opacity="0.57">
<path d="M92.0781 53.2051C92.3763 53.0088 92.6857 52.8144 92.991 52.617C90.0962 50.9792 86.9286 49.8776 83.641 49.3655C83.0398 49.6428 82.4348 49.9278 81.8262 50.2207C85.7167 50.2578 89.4917 51.016 92.0781 53.2051Z" fill="#900040"/>
</g>
<g style="mix-blend-mode:multiply" opacity="0.57">
<path d="M62.1155 80.4785C62.3966 80.3391 62.6747 80.2038 62.9371 80.0853C61.5161 79.6157 60.26 78.4649 59.3698 76.3674C59.332 76.3426 59.3003 76.3096 59.277 76.271C59.2537 76.2323 59.2394 76.1889 59.2351 76.144L59.2221 76.0552C58.8867 75.1749 58.6313 74.2661 58.459 73.34C58.1998 73.6286 57.9122 73.9214 57.6102 74.1909C58.6197 76.7282 60.0671 79.0305 62.1155 80.4785Z" fill="#900040"/>
</g>
<g style="mix-blend-mode:multiply" opacity="0.57">
<path d="M89.2139 55.1295C89.5932 54.8668 89.9837 54.6061 90.3741 54.3454C87.7414 52.5079 84.3111 50.9803 80.2032 51.0223C79.1741 51.5368 78.1402 52.0761 77.1015 52.6404C81.3454 52.0411 85.8423 52.3955 89.2139 55.1295Z" fill="#900040"/>
</g>
<g style="mix-blend-mode:multiply" opacity="0.57">
<path d="M61.8347 69.954C62.2693 69.5489 62.8004 69.1077 63.3746 68.6385C62.6383 66.7723 62.299 64.492 62.1542 62.5207C61.8283 62.7755 61.5207 63.0313 61.203 63.2923C61.0193 65.5261 61.0702 68.0194 61.8347 69.954Z" fill="#900040"/>
</g>
<g style="mix-blend-mode:multiply" opacity="0.57">
<path d="M81.9084 60.4332C82.1887 60.214 82.4857 59.9852 82.7777 59.7716C85.0793 54.3223 79.8793 52.9935 69.4361 57.2275C68.4624 57.8717 67.4914 58.5336 66.5245 59.224C73.6714 56.7928 85.9818 53.195 81.9084 60.4332Z" fill="#900040"/>
</g>
</g>
<path style="mix-blend-mode:multiply" opacity="0.63" d="M38.9422 79.1383C38.5815 80.4654 37.7068 85.5595 36.799 90.2809L36.5406 90.2536C36.0212 90.2067 35.5325 90.1697 35.0717 90.1504C36.4771 90.1432 35.9927 92.5556 35.8796 93.7628C35.7666 94.9699 34.8387 94.8633 32.6809 95.2898C30.5231 95.7163 29.5202 94.0383 30.5882 91.7142C29.8619 92.6813 29.3469 94.1944 29.005 96.5133C28.7255 97.3057 28.7774 100.202 27.0814 101.765C26.8484 101.985 25.6949 102.913 24.2026 104.058C29.711 99.8285 31.1854 99.8946 30.5468 100.544C29.9083 101.193 18.4005 111.849 18.7582 113.168C18.9571 112.05 26.219 105.388 28.1874 103.65C29.8503 102.182 32.7979 102.307 33.5329 102.362C33.5756 102.356 33.6214 102.371 33.6616 102.372L33.7114 102.365C34.8363 102.47 35.9695 102.452 37.0905 102.31C35.1792 102.461 33.354 101.27 34.6288 100.4C36.1181 99.3826 35.9084 97.958 36.6561 95.3835C37.4037 92.8089 41.7883 93.4375 41.4927 96.1451C46.3036 96.3117 51.4861 96.5833 52.8624 96.526C54.5457 96.456 54.9362 96.2207 56.3763 93.8564C55.6238 94.8673 54.8719 95.6603 54.3482 95.6575C52.8939 95.6538 39.2268 92.7256 39.2268 92.7256C39.2268 92.7256 38.9812 77.7243 40.7346 76.8963C39.5276 77.4369 39.2718 77.921 38.9422 79.1383ZM35.6127 96.0234C35.3914 96.9888 35.1821 97.7891 35.0013 98.3384C34.4633 99.9674 33.0206 100.808 31.6316 101.223C30.8044 100.368 31.2854 99.6112 31.2854 99.6112C30.5967 99.6727 30.0995 99.2087 29.7442 98.6222C30.4731 97.426 31.5779 96.2652 33.2339 96.1086C33.8143 96.0522 34.6354 96.0257 35.6198 96.0223L35.6127 96.0234Z" fill="url(#paint6_linear_730_16520)"/>
<path style="mix-blend-mode:multiply" opacity="0.63" d="M15.4507 112.846C13.9348 110.201 14.8165 105.821 14.8249 105.631C14.8333 105.441 15.3674 104.873 15.3674 104.873L14.7506 105.25C12.4969 110.703 14.609 113.819 14.609 113.819C17.907 116.052 22.7421 115.05 22.7421 115.05L23.2115 114.436C23.0229 114.626 22.7792 114.75 22.5153 114.793C22.0185 114.924 16.9573 115.477 15.4507 112.846Z" fill="url(#paint7_linear_730_16520)"/>
<path style="mix-blend-mode:multiply" opacity="0.79" d="M34.5756 96.0379C34.5647 96.0378 34.5539 96.0394 34.5435 96.0427C34.8766 96.0336 35.232 96.0284 35.6311 96.0241C36.1673 94.1424 36.5614 92.2232 36.8103 90.2827C36.8103 90.2827 36.4164 92.1991 35.8774 93.821C35.8589 94.0345 35.7866 94.2399 35.6673 94.4181C35.3217 95.3292 34.9381 96.0318 34.5756 96.0379Z" fill="url(#paint8_linear_730_16520)"/>
<path style="mix-blend-mode:multiply" opacity="0.79" d="M29.7513 98.621C30.1947 97.8417 30.8152 97.1772 31.5627 96.6812C30.7475 97.1777 30.0063 97.7865 29.3613 98.4897C29.9612 100.096 31.2925 99.6101 31.2925 99.6101C30.593 99.6731 30.1066 99.2076 29.7513 98.621Z" fill="url(#paint9_linear_730_16520)"/>
<path style="mix-blend-mode:multiply" opacity="0.79" d="M31.1799 99.906C31.0877 100.22 31.0873 100.554 31.1786 100.869C31.27 101.183 31.4493 101.465 31.6956 101.681C31.6956 101.681 33.5086 100.641 34.163 99.7536C34.1719 99.7422 34.1798 99.7301 34.1868 99.7174C33.4852 100.435 32.6061 100.953 31.6388 101.221C31.4552 101.06 31.3164 100.854 31.236 100.624C31.1556 100.394 31.1362 100.146 31.1799 99.906Z" fill="url(#paint10_linear_730_16520)"/>
<path style="mix-blend-mode:screen" opacity="0.86" d="M30.2274 94.0282C30.0277 91.0668 34.8344 93.0815 34.8245 94.0266C34.8212 94.8438 33.852 95.0736 33.5832 95.124C35.101 94.868 35.7851 94.7999 35.8795 93.7625C35.9921 92.5518 36.477 90.1429 35.0716 90.1501C35.5324 90.1694 36.0212 90.2064 36.5405 90.2533C33.752 89.9996 31.85 90.04 30.5774 91.7154C30.2056 92.4258 30.0824 93.24 30.2274 94.0282Z" fill="url(#paint11_linear_730_16520)"/>
<path style="mix-blend-mode:screen" opacity="0.86" d="M14.8153 105.615C14.8069 105.804 13.9252 110.185 15.4411 112.829C16.0669 113.92 17.2915 114.462 18.5541 114.719C16.354 113.994 15.5768 110.689 16.8907 109.567C18.3749 108.292 30.5468 100.544 27.408 103.54C29.0602 101.95 30.3478 100.748 30.5458 100.537C31.1772 99.8886 29.7135 99.821 24.2046 104.047C20.9944 106.509 16.2083 109.943 15.6371 109.395C14.7984 108.586 15.3675 104.873 15.3675 104.873C15.3675 104.873 14.8242 105.428 14.8153 105.615Z" fill="url(#paint12_linear_730_16520)"/>
<path style="mix-blend-mode:screen" opacity="0.86" d="M37.8745 100.155C37.9898 99.2593 39.3346 93.2104 40.8532 94.417C39.6651 93.3324 37.2042 93.5022 36.6653 95.3964C35.9197 97.9852 36.1294 99.4098 34.6381 100.413C33.9317 100.898 34.1843 101.478 34.8713 101.874C33.2074 100.718 37.7562 101.08 37.8745 100.155Z" fill="url(#paint13_linear_730_16520)"/>
<path style="mix-blend-mode:screen" d="M39.2196 92.7265C39.2196 92.7265 48.4703 94.7113 52.5608 95.4159C47.8206 94.3714 40.9093 91.8607 40.9093 91.8607C40.9093 91.8607 39.7715 82.4025 40.2231 79.7916C40.6747 77.1808 42.958 76.3728 46.7623 74.8365C43.5592 75.9141 41.774 76.4273 40.7162 76.8952C38.974 77.7251 39.2196 92.7265 39.2196 92.7265Z" fill="url(#paint14_linear_730_16520)"/>
<path style="mix-blend-mode:multiply" opacity="0.57" d="M67.3238 74.7539C67.2347 74.7162 67.2914 74.5336 67.4478 74.2384L67.4327 74.2587C66.3025 76.0621 66.8977 77.2412 69.9866 73.3384C69.9866 73.3384 68.3283 75.1831 67.3238 74.7539Z" fill="url(#paint15_linear_730_16520)"/>
<path style="mix-blend-mode:multiply" opacity="0.74" d="M76.2545 65.0583C84.2196 58.1111 97.5377 48.4959 116.438 39.8447C116.438 39.8447 111.662 41.2736 104.671 43.7001C94.8493 47.8608 83.8467 57.7014 76.2545 65.0583Z" fill="url(#paint16_linear_730_16520)"/>
<path style="mix-blend-mode:screen" opacity="0.76" d="M55.4101 75.687C56.6921 77.6071 59.1812 73.9994 59.4209 71.9243C59.108 73.1319 55.9305 75.8645 55.4101 75.687Z" fill="url(#paint17_linear_730_16520)"/>
<path style="mix-blend-mode:screen" opacity="0.76" d="M57.5163 66.5173C74.8983 52.1915 116.44 39.8592 116.44 39.8592C116.44 39.8592 83.1448 42.9344 57.5163 66.5173Z" fill="url(#paint18_linear_730_16520)"/>
<path style="mix-blend-mode:screen" d="M40.1267 80.9893C40.0861 82.8279 40.171 84.6672 40.381 86.4943C40.381 86.4943 39.4515 83.5132 40.1267 80.9893Z" fill="url(#paint19_linear_730_16520)"/>
<path style="mix-blend-mode:screen" d="M40.4404 87.3164C40.4404 87.3164 40.5092 88.2282 40.6136 89.1348C40.6136 89.1348 40.0736 88.1326 40.4404 87.3164Z" fill="url(#paint20_linear_730_16520)"/>
<path style="mix-blend-mode:screen" opacity="0.51" d="M31.9744 92.4899C31.9744 92.4899 34.5094 92.4289 34.7473 93.7986C34.7473 93.7986 34.0723 92.8417 31.9744 92.4899Z" fill="url(#paint21_linear_730_16520)"/>
<path style="mix-blend-mode:screen" opacity="0.51" d="M39.5146 95.0278C39.5146 95.0278 38.3665 95.8937 38.0916 99.0629C38.3762 97.6585 38.8552 96.3005 39.5146 95.0278Z" fill="url(#paint22_linear_730_16520)"/>
<path style="mix-blend-mode:multiply" opacity="0.57" d="M109.82 41.9697C98.8829 45.5868 76.8496 53.4977 62.7925 62.6846C84.5934 51.5412 87.3632 54.5563 81.9238 59.7488C88.8015 53.5134 97.0908 46.9177 104.673 43.7182C106.574 43.0501 108.306 42.4685 109.82 41.9697Z" fill="url(#paint23_linear_730_16520)"/>
<path style="mix-blend-mode:multiply" opacity="0.57" d="M79.528 60.3845C79.7265 60.6964 79.3809 61.2373 78.6632 61.9164C79.2129 61.429 82.0399 59.1545 81.4051 58.4712C80.7703 57.7879 76.077 59.1611 64.4605 67.8181C69.8205 63.8641 78.6759 59.0399 79.528 60.3845Z" fill="url(#paint24_linear_730_16520)"/>
<path style="mix-blend-mode:screen" opacity="0.76" d="M77.4043 62.9692C72.4199 66.7845 60.5944 72.9351 60.4042 72.063C60.3875 71.9651 60.3939 71.8648 60.4228 71.7699C59.8374 72.7308 60.7334 73.2377 65.6413 71.0017C69.4819 69.2677 74.9428 64.9867 77.4043 62.9692Z" fill="url(#paint25_linear_730_16520)"/>
<path style="mix-blend-mode:multiply" opacity="0.57" d="M65.0433 73.605C65.0696 74.3271 63.539 75.3109 62.041 75.9234C64.3798 74.9985 66.6456 73.8737 66.4826 72.816C66.3197 71.7584 62.5575 72.3957 60.0928 74.6386C61.6968 73.3136 65.007 72.5686 65.0433 73.605Z" fill="url(#paint26_linear_730_16520)"/>
<path style="mix-blend-mode:screen" opacity="0.76" d="M61.745 76.0358C60.4641 76.5183 59.2973 76.6901 59.2351 76.1439C59.2339 75.9142 59.2822 75.687 59.3768 75.4777C59.4714 75.2683 59.6101 75.0818 59.7834 74.9307C56.7969 77.7514 59.3904 76.9522 61.7633 76.0367L61.745 76.0358Z" fill="url(#paint27_linear_730_16520)"/>
<path style="mix-blend-mode:screen" opacity="0.26" d="M86.5137 92.0916C92.2402 114.206 117.161 104.582 105.965 87.8456C94.7679 71.1097 89.5713 53.2365 98.6142 53.8836C107.657 54.5306 131.773 71.2378 114.781 47.896C102.983 31.6914 92.7927 30.9011 93.0135 23.5622C93.2343 16.2232 106.175 26.5647 111.165 35.7718C116.155 44.9789 127.963 31.7748 117.138 24.501C106.313 17.2272 106.868 21.9148 103.466 16.5029C100.064 11.0911 107.538 17.5006 108.24 10.8604C108.24 10.8604 106.828 14.6288 104.766 11.9524C102.704 9.27602 99.9196 8.18682 99.8293 12.9803C99.739 17.7738 101.887 16.5902 108.502 21.5038C115.116 26.4174 117.406 35.1581 111.923 32.4771C106.44 29.796 83.9569 4.55121 76.4199 6.23409C68.883 7.91697 78.8263 27.0261 88.9151 32.8039C99.004 38.5818 89.7988 39.7952 84.9511 41.4524C80.1034 43.1097 80.2684 53.5387 90.4325 52.3221C106.632 50.3804 108.417 52.4624 107.733 54.1311C107.509 54.6218 107.101 55.0048 106.597 55.1972C106.092 55.3896 105.533 55.376 105.038 55.1593C101.419 53.6523 90.7646 50.208 79.7806 56.2493C65.2563 64.2381 80.3363 72.8637 90.548 75.081C100.76 77.2983 117.233 103.119 98.7497 93.1978C80.2663 83.2765 86.8391 72.5744 68.8702 66.6425C50.9014 60.7107 47.4293 65.2942 48.637 69.5482C49.8446 73.8022 53.2084 80.853 64.888 83.0684C76.5677 85.2837 74.3201 90.7541 64.4743 84.7263C54.6285 78.6985 44.9105 76.3542 38.2167 80.3085C31.5229 84.2628 43.773 100.328 33.7584 100.438C23.7439 100.547 32.9296 104.189 39.4758 101.701C46.022 99.2133 37.0412 94.0745 36.9761 87.1878C36.9109 80.3011 56.5018 80.4626 67.8152 87.1528C79.1286 93.8429 87.2387 95.4367 82.9565 84.2453C78.6744 73.0539 53.3772 71.1117 56.9503 66.2266C60.5233 61.3415 80.7832 69.9741 86.5137 92.0916ZM85.379 18.6571C77.7404 15.2045 76.8792 6.39152 84.3636 9.78333C91.7701 13.1648 93.0177 22.1097 85.379 18.6571ZM89.556 51.972C81.6247 51.4698 95.1313 41.9249 97.621 45.482C100.111 49.0391 95.6461 52.3605 89.556 51.972ZM74.2651 63.7396C73.8649 58.3541 82.1427 53.0632 86.7389 64.956C91.3352 76.8489 74.7929 70.8812 74.2651 63.7396Z" fill="url(#paint28_linear_730_16520)"/>
<g opacity="0.65">
<g style="mix-blend-mode:screen">
<path d="M60.311 77.3022C60.3024 77.304 60.2936 77.3039 60.285 77.3022C60.2764 77.3004 60.2683 77.2969 60.2612 77.2918C60.254 77.2868 60.2479 77.2804 60.2433 77.2729C60.2388 77.2655 60.2357 77.2572 60.2345 77.2485C60.2327 77.2397 60.2327 77.2305 60.2347 77.2217C60.2366 77.2128 60.2405 77.2045 60.2459 77.1973C60.2513 77.19 60.2582 77.1839 60.2661 77.1795C60.274 77.1751 60.2827 77.1724 60.2918 77.1716C60.3004 77.1703 60.3093 77.1708 60.3177 77.173C60.3262 77.1753 60.3341 77.1792 60.341 77.1846C60.3479 77.19 60.3536 77.1968 60.3577 77.2045C60.3619 77.2121 60.3645 77.2206 60.3653 77.2293C60.3665 77.2376 60.3661 77.2461 60.364 77.2543C60.3619 77.2625 60.3583 77.2702 60.3532 77.277C60.3482 77.2837 60.3419 77.2895 60.3346 77.2938C60.3274 77.2981 60.3193 77.301 60.311 77.3022Z" fill="#FF77FF"/>
</g>
<path style="mix-blend-mode:screen" opacity="0.69" d="M60.5543 78.9588C60.2129 79.0097 59.8641 78.9584 59.552 78.8112C59.2399 78.6639 58.9786 78.4275 58.8012 78.1318C58.6238 77.8361 58.5383 77.4944 58.5555 77.1501C58.5728 76.8057 58.6919 76.4742 58.8979 76.1975C59.1039 75.9207 59.3875 75.7113 59.7127 75.5956C60.0379 75.4799 60.3902 75.4632 60.7248 75.5476C61.0595 75.6321 61.3615 75.8138 61.5926 76.0698C61.8237 76.3259 61.9734 76.6447 62.0229 76.9859C62.0891 77.4417 61.9717 77.9053 61.6964 78.2751C61.4212 78.6448 61.0105 78.8907 60.5543 78.9588Z" fill="url(#paint29_radial_730_16520)"/>
</g>
<g opacity="0.65">
<g style="mix-blend-mode:screen">
<path d="M50.3671 83.8183C50.3585 83.8195 50.3496 83.8191 50.3412 83.8168C50.3327 83.8146 50.3248 83.8106 50.3179 83.8052C50.3111 83.7998 50.3053 83.7931 50.3012 83.7854C50.297 83.7777 50.2944 83.7693 50.2936 83.7606C50.2899 83.7511 50.2883 83.7408 50.2891 83.7306C50.2899 83.7205 50.2929 83.7106 50.298 83.7017C50.3032 83.6929 50.3102 83.6853 50.3187 83.6796C50.3271 83.6738 50.3368 83.6701 50.3469 83.6686C50.357 83.6671 50.3674 83.6679 50.3771 83.671C50.3869 83.674 50.3958 83.6792 50.4033 83.6862C50.4107 83.6932 50.4165 83.7018 50.4202 83.7113C50.4238 83.7209 50.4253 83.7311 50.4244 83.7413C50.4262 83.7502 50.4262 83.7593 50.4242 83.7682C50.4223 83.777 50.4184 83.7853 50.413 83.7926C50.4076 83.7999 50.4007 83.8059 50.3928 83.8103C50.3849 83.8148 50.3762 83.8175 50.3671 83.8183Z" fill="#FF77FF"/>
</g>
<path style="mix-blend-mode:screen" opacity="0.69" d="M48.6317 84.0058C48.7718 84.9574 49.6578 85.6152 50.6106 85.4749C51.5634 85.3347 52.2223 84.4495 52.0822 83.4979C51.9422 82.5463 51.0562 81.8886 50.1034 82.0289C49.1505 82.1691 48.4917 83.0542 48.6317 84.0058Z" fill="url(#paint30_radial_730_16520)"/>
</g>
<g style="mix-blend-mode:screen">
<path d="M57.4786 64.2107C57.4314 64.2177 57.3834 64.2056 57.3451 64.1772C57.3069 64.1488 57.2815 64.1064 57.2746 64.0593C57.2706 64.0357 57.2714 64.0116 57.2769 63.9884C57.2824 63.9651 57.2925 63.9432 57.3066 63.9239C57.3206 63.9046 57.3384 63.8883 57.3589 63.8759C57.3794 63.8635 57.4021 63.8554 57.4258 63.8519C57.4739 63.8448 57.5228 63.8571 57.5619 63.8861C57.6009 63.9151 57.6268 63.9583 57.6338 64.0064C57.6373 64.03 57.6361 64.0541 57.6301 64.0772C57.6241 64.1004 57.6136 64.1221 57.5992 64.1411C57.5847 64.1601 57.5666 64.1761 57.5459 64.1881C57.5252 64.2 57.5023 64.2077 57.4786 64.2107Z" fill="#FF77FF"/>
</g>
<g style="mix-blend-mode:screen">
<path d="M86.5632 83.5403C86.578 83.6403 86.6711 83.7095 86.7713 83.6947C86.8715 83.68 86.9408 83.5869 86.9261 83.4869C86.9114 83.3868 86.8182 83.3176 86.718 83.3324C86.6178 83.3471 86.5485 83.4402 86.5632 83.5403Z" fill="#FF77FF"/>
</g>
<g style="mix-blend-mode:screen">
<path d="M78.2569 70.0193C78.2716 70.1193 78.3647 70.1885 78.4649 70.1737C78.5651 70.159 78.6344 70.0659 78.6197 69.9659C78.605 69.8658 78.5118 69.7966 78.4116 69.8114C78.3114 69.8261 78.2421 69.9192 78.2569 70.0193Z" fill="#FF77FF"/>
</g>
<g style="mix-blend-mode:screen">
<path d="M104 54.8947C104.015 54.9948 104.108 55.064 104.208 55.0492C104.308 55.0345 104.378 54.9414 104.363 54.8413C104.348 54.7413 104.255 54.6721 104.155 54.6869C104.055 54.7016 103.985 54.7947 104 54.8947Z" fill="#FF77FF"/>
</g>
<g style="mix-blend-mode:screen">
<path d="M81.2442 26.5647C81.2589 26.6647 81.352 26.7339 81.4522 26.7192C81.5524 26.7044 81.6217 26.6113 81.607 26.5113C81.5923 26.4112 81.4991 26.342 81.3989 26.3568C81.2987 26.3715 81.2294 26.4646 81.2442 26.5647Z" fill="#FF77FF"/>
</g>
<g style="mix-blend-mode:screen">
<path d="M103.064 35.0769C103.078 35.1769 103.172 35.2461 103.272 35.2314C103.372 35.2166 103.441 35.1235 103.427 35.0235C103.412 34.9234 103.319 34.8542 103.218 34.869C103.118 34.8837 103.049 34.9768 103.064 35.0769Z" fill="#FF77FF"/>
</g>
<g style="mix-blend-mode:screen">
<path d="M103.756 104.047C103.77 104.147 103.864 104.216 103.964 104.201C104.064 104.186 104.133 104.093 104.118 103.993C104.104 103.893 104.011 103.824 103.91 103.839C103.81 103.853 103.741 103.947 103.756 104.047Z" fill="#FF77FF"/>
</g>
<g style="mix-blend-mode:screen">
<path d="M73.3264 90.2253C73.3412 90.3254 73.4343 90.3945 73.5345 90.3798C73.6347 90.365 73.704 90.272 73.6893 90.1719C73.6745 90.0718 73.5814 90.0027 73.4812 90.0174C73.381 90.0322 73.3117 90.1252 73.3264 90.2253Z" fill="#FF77FF"/>
</g>
<g style="mix-blend-mode:screen">
<path d="M101.666 24.3464C101.681 24.4465 101.774 24.5156 101.874 24.5009C101.974 24.4861 102.043 24.3931 102.029 24.293C102.014 24.1929 101.921 24.1238 101.821 24.1385C101.72 24.1533 101.651 24.2463 101.666 24.3464Z" fill="#FF77FF"/>
</g>
<g style="mix-blend-mode:screen">
<path d="M50.0423 74.009C50.057 74.1091 50.1501 74.1782 50.2503 74.1635C50.3505 74.1487 50.4198 74.0557 50.4051 73.9556C50.3904 73.8555 50.2972 73.7864 50.197 73.8011C50.0968 73.8159 50.0275 73.9089 50.0423 74.009Z" fill="#FF77FF"/>
</g>
</g>
<defs>
<linearGradient id="paint0_linear_730_16520" x1="128.826" y1="3.34035" x2="57.4221" y2="99.5218" gradientUnits="userSpaceOnUse">
<stop/>
<stop offset="0.08" stop-color="#090009"/>
<stop offset="0.23" stop-color="#230023"/>
<stop offset="0.41" stop-color="#4D004D"/>
<stop offset="0.62" stop-color="#860086"/>
<stop offset="0.86" stop-color="#CF00CF"/>
<stop offset="1" stop-color="#FF00FF"/>
</linearGradient>
<linearGradient id="paint1_linear_730_16520" x1="96.2759" y1="43.791" x2="41.3585" y2="98.3133" gradientUnits="userSpaceOnUse">
<stop stop-color="#FF83B8"/>
<stop offset="0.45" stop-color="#D44A92"/>
<stop offset="1" stop-color="#9B0061"/>
</linearGradient>
<linearGradient id="paint2_linear_730_16520" x1="90.9568" y1="38.4333" x2="36.0394" y2="92.9556" gradientUnits="userSpaceOnUse">
<stop stop-color="#FF00FF"/>
<stop offset="0.14" stop-color="#CF00CF"/>
<stop offset="0.38" stop-color="#860086"/>
<stop offset="0.59" stop-color="#4D004D"/>
<stop offset="0.77" stop-color="#230023"/>
<stop offset="0.92" stop-color="#090009"/>
<stop offset="1"/>
</linearGradient>
<linearGradient id="paint3_linear_730_16520" x1="53.6156" y1="80.6804" x2="55.3397" y2="92.3935" gradientUnits="userSpaceOnUse">
<stop stop-color="#900040"/>
<stop offset="0.1" stop-color="#920544"/>
<stop offset="0.23" stop-color="#98134F"/>
<stop offset="0.36" stop-color="#A32C61"/>
<stop offset="0.5" stop-color="#B24D7A"/>
<stop offset="0.65" stop-color="#C4789A"/>
<stop offset="0.8" stop-color="#DBADC2"/>
<stop offset="0.95" stop-color="#F6EAEF"/>
<stop offset="1" stop-color="white"/>
</linearGradient>
<linearGradient id="paint4_linear_730_16520" x1="92.8064" y1="40.2963" x2="37.8889" y2="94.8186" gradientUnits="userSpaceOnUse">
<stop offset="0.87" stop-color="white"/>
<stop offset="0.88" stop-color="#F6EAEF"/>
<stop offset="0.9" stop-color="#DBADC2"/>
<stop offset="0.92" stop-color="#C4789A"/>
<stop offset="0.93" stop-color="#B24D7A"/>
<stop offset="0.95" stop-color="#A32C61"/>
<stop offset="0.97" stop-color="#98134F"/>
<stop offset="0.99" stop-color="#920544"/>
<stop offset="1" stop-color="#900040"/>
</linearGradient>
<linearGradient id="paint5_linear_730_16520" x1="25.7413" y1="112.191" x2="43.7936" y2="89.1402" gradientUnits="userSpaceOnUse">
<stop offset="0.22" stop-color="#854AB2"/>
<stop offset="0.67" stop-color="#A569CA"/>
<stop offset="1" stop-color="#BF83DE"/>
</linearGradient>
<linearGradient id="paint6_linear_730_16520" x1="51.8686" y1="80.6148" x2="29.6773" y2="110.502" gradientUnits="userSpaceOnUse">
<stop offset="0.47" stop-color="#632EAE"/>
<stop offset="0.63" stop-color="#916BC6"/>
<stop offset="1" stop-color="white"/>
</linearGradient>
<linearGradient id="paint7_linear_730_16520" x1="15.1559" y1="115.016" x2="-7.33772" y2="145.315" gradientUnits="userSpaceOnUse">
<stop offset="0.47" stop-color="#632EAE"/>
<stop offset="0.63" stop-color="#916BC6"/>
<stop offset="1" stop-color="white"/>
</linearGradient>
<linearGradient id="paint8_linear_730_16520" x1="47.7927" y1="77.5886" x2="25.6055" y2="107.479" gradientUnits="userSpaceOnUse">
<stop offset="0.47" stop-color="#632EAE"/>
<stop offset="0.63" stop-color="#916BC6"/>
<stop offset="1" stop-color="white"/>
</linearGradient>
<linearGradient id="paint9_linear_730_16520" x1="46.8301" y1="76.8774" x2="24.6424" y2="106.765" gradientUnits="userSpaceOnUse">
<stop offset="0.47" stop-color="#632EAE"/>
<stop offset="0.63" stop-color="#916BC6"/>
<stop offset="1" stop-color="white"/>
</linearGradient>
<linearGradient id="paint10_linear_730_16520" x1="48.7188" y1="78.276" x2="26.5275" y2="108.164" gradientUnits="userSpaceOnUse">
<stop offset="0.47" stop-color="#632EAE"/>
<stop offset="0.63" stop-color="#916BC6"/>
<stop offset="1" stop-color="white"/>
</linearGradient>
<linearGradient id="paint11_linear_730_16520" x1="35.2058" y1="90.2719" x2="32.2041" y2="94.3154" gradientUnits="userSpaceOnUse">
<stop offset="0.25" stop-color="#9A77F6"/>
<stop offset="0.44" stop-color="#6C53AC"/>
<stop offset="0.64" stop-color="#3E3063"/>
<stop offset="0.81" stop-color="#1C162D"/>
<stop offset="0.93" stop-color="#08060C"/>
<stop offset="1"/>
</linearGradient>
<linearGradient id="paint12_linear_730_16520" x1="34.7814" y1="86.796" x2="12.7482" y2="116.475" gradientUnits="userSpaceOnUse">
<stop stop-color="#9A77F6"/>
<stop offset="0.25" stop-color="#6C53AC"/>
<stop offset="0.52" stop-color="#3E3063"/>
<stop offset="0.74" stop-color="#1C162D"/>
<stop offset="0.91" stop-color="#08060C"/>
<stop offset="1"/>
</linearGradient>
<linearGradient id="paint13_linear_730_16520" x1="40.0433" y1="93.9518" x2="34.6966" y2="101.15" gradientUnits="userSpaceOnUse">
<stop offset="0.22" stop-color="#9A77F6"/>
<stop offset="0.25" stop-color="#906FE5"/>
<stop offset="0.37" stop-color="#6A52A9"/>
<stop offset="0.49" stop-color="#4A3976"/>
<stop offset="0.6" stop-color="#2F244B"/>
<stop offset="0.71" stop-color="#1B152B"/>
<stop offset="0.82" stop-color="#0C0913"/>
<stop offset="0.92" stop-color="#030205"/>
<stop offset="1"/>
</linearGradient>
<linearGradient id="paint14_linear_730_16520" x1="49.126" y1="82.7714" x2="40.269" y2="94.7017" gradientUnits="userSpaceOnUse">
<stop offset="0.41" stop-color="#9A77F6"/>
<stop offset="0.56" stop-color="#6C53AC"/>
<stop offset="0.71" stop-color="#3E3063"/>
<stop offset="0.85" stop-color="#1C162D"/>
<stop offset="0.95" stop-color="#08060C"/>
<stop offset="1"/>
</linearGradient>
<linearGradient id="paint15_linear_730_16520" x1="68.3076" y1="73.5855" x2="68.8394" y2="77.1986" gradientUnits="userSpaceOnUse">
<stop stop-color="#900040"/>
<stop offset="0.1" stop-color="#920544"/>
<stop offset="0.23" stop-color="#98134F"/>
<stop offset="0.36" stop-color="#A32C61"/>
<stop offset="0.5" stop-color="#B24D7A"/>
<stop offset="0.65" stop-color="#C4789A"/>
<stop offset="0.8" stop-color="#DBADC2"/>
<stop offset="0.95" stop-color="#F6EAEF"/>
<stop offset="1" stop-color="white"/>
</linearGradient>
<linearGradient id="paint16_linear_730_16520" x1="94.9583" y1="43.021" x2="97.7387" y2="61.9104" gradientUnits="userSpaceOnUse">
<stop offset="0.3" stop-color="#900040"/>
<stop offset="0.37" stop-color="#920544"/>
<stop offset="0.46" stop-color="#98134F"/>
<stop offset="0.55" stop-color="#A32C61"/>
<stop offset="0.65" stop-color="#B24D7A"/>
<stop offset="0.75" stop-color="#C4789A"/>
<stop offset="0.86" stop-color="#DBADC2"/>
<stop offset="0.97" stop-color="#F6EAEF"/>
<stop offset="1" stop-color="white"/>
</linearGradient>
<linearGradient id="paint17_linear_730_16520" x1="92.2725" y1="39.7583" x2="37.355" y2="94.2805" gradientUnits="userSpaceOnUse">
<stop stop-color="#FF00FF"/>
<stop offset="0.14" stop-color="#CF00CF"/>
<stop offset="0.38" stop-color="#860086"/>
<stop offset="0.59" stop-color="#4D004D"/>
<stop offset="0.77" stop-color="#230023"/>
<stop offset="0.92" stop-color="#090009"/>
<stop offset="1"/>
</linearGradient>
<linearGradient id="paint18_linear_730_16520" x1="96.2758" y1="43.7912" x2="41.3583" y2="98.3134" gradientUnits="userSpaceOnUse">
<stop stop-color="#FF00FF"/>
<stop offset="0.14" stop-color="#CF00CF"/>
<stop offset="0.38" stop-color="#860086"/>
<stop offset="0.59" stop-color="#4D004D"/>
<stop offset="0.77" stop-color="#230023"/>
<stop offset="0.92" stop-color="#090009"/>
<stop offset="1"/>
</linearGradient>
<linearGradient id="paint19_linear_730_16520" x1="65.3501" y1="58.6783" x2="38.0395" y2="86.0209" gradientUnits="userSpaceOnUse">
<stop offset="0.92" stop-color="#9A77F6"/>
<stop offset="0.94" stop-color="#6C53AC"/>
<stop offset="0.96" stop-color="#3E3063"/>
<stop offset="0.98" stop-color="#1C162D"/>
<stop offset="0.99" stop-color="#08060C"/>
<stop offset="1"/>
</linearGradient>
<linearGradient id="paint20_linear_730_16520" x1="48.3973" y1="80.3632" x2="39.8342" y2="88.9386" gradientUnits="userSpaceOnUse">
<stop offset="0.93" stop-color="#9A77F6"/>
<stop offset="0.95" stop-color="#6C53AC"/>
<stop offset="0.97" stop-color="#3E3063"/>
<stop offset="0.98" stop-color="#1C162D"/>
<stop offset="0.99" stop-color="#08060C"/>
<stop offset="1"/>
</linearGradient>
<linearGradient id="paint21_linear_730_16520" x1="41.7637" y1="84.7516" x2="32.6972" y2="93.83" gradientUnits="userSpaceOnUse">
<stop offset="0.9" stop-color="#9A77F6"/>
<stop offset="0.93" stop-color="#6C53AC"/>
<stop offset="0.95" stop-color="#3E3063"/>
<stop offset="0.97" stop-color="#1C162D"/>
<stop offset="0.99" stop-color="#08060C"/>
<stop offset="1"/>
</linearGradient>
<linearGradient id="paint22_linear_730_16520" x1="64.8972" y1="70.9839" x2="36.4976" y2="99.4138" gradientUnits="userSpaceOnUse">
<stop offset="0.89" stop-color="#9A77F6"/>
<stop offset="0.92" stop-color="#6C53AC"/>
<stop offset="0.95" stop-color="#3E3063"/>
<stop offset="0.97" stop-color="#1C162D"/>
<stop offset="0.99" stop-color="#08060C"/>
<stop offset="1"/>
</linearGradient>
<linearGradient id="paint23_linear_730_16520" x1="100.969" y1="37.6111" x2="78.7903" y2="59.6301" gradientUnits="userSpaceOnUse">
<stop stop-color="#900040"/>
<stop offset="0.23" stop-color="#AF4675"/>
<stop offset="0.51" stop-color="#D195AF"/>
<stop offset="0.74" stop-color="#EACEDA"/>
<stop offset="0.91" stop-color="#F9F2F5"/>
<stop offset="1" stop-color="white"/>
</linearGradient>
<linearGradient id="paint24_linear_730_16520" x1="94.4624" y1="41.9644" x2="39.5449" y2="96.4866" gradientUnits="userSpaceOnUse">
<stop stop-color="#900040"/>
<stop offset="0.1" stop-color="#920544"/>
<stop offset="0.23" stop-color="#98134F"/>
<stop offset="0.36" stop-color="#A32C61"/>
<stop offset="0.5" stop-color="#B24D7A"/>
<stop offset="0.65" stop-color="#C4789A"/>
<stop offset="0.8" stop-color="#DBADC2"/>
<stop offset="0.95" stop-color="#F6EAEF"/>
<stop offset="1" stop-color="white"/>
</linearGradient>
<linearGradient id="paint25_linear_730_16520" x1="94.3475" y1="41.8525" x2="39.4373" y2="96.3676" gradientUnits="userSpaceOnUse">
<stop stop-color="#FF00FF"/>
<stop offset="0.14" stop-color="#CF00CF"/>
<stop offset="0.38" stop-color="#860086"/>
<stop offset="0.59" stop-color="#4D004D"/>
<stop offset="0.77" stop-color="#230023"/>
<stop offset="0.92" stop-color="#090009"/>
<stop offset="1"/>
</linearGradient>
<linearGradient id="paint26_linear_730_16520" x1="94.8386" y1="42.3578" x2="39.9356" y2="96.8657" gradientUnits="userSpaceOnUse">
<stop stop-color="#900040"/>
<stop offset="0.1" stop-color="#920544"/>
<stop offset="0.23" stop-color="#98134F"/>
<stop offset="0.36" stop-color="#A32C61"/>
<stop offset="0.5" stop-color="#B24D7A"/>
<stop offset="0.65" stop-color="#C4789A"/>
<stop offset="0.8" stop-color="#DBADC2"/>
<stop offset="0.95" stop-color="#F6EAEF"/>
<stop offset="1" stop-color="white"/>
</linearGradient>
<linearGradient id="paint27_linear_730_16520" x1="94.3333" y1="41.8306" x2="39.4159" y2="96.3565" gradientUnits="userSpaceOnUse">
<stop stop-color="#FF00FF"/>
<stop offset="0.14" stop-color="#CF00CF"/>
<stop offset="0.38" stop-color="#860086"/>
<stop offset="0.59" stop-color="#4D004D"/>
<stop offset="0.77" stop-color="#230023"/>
<stop offset="0.92" stop-color="#090009"/>
<stop offset="1"/>
</linearGradient>
<linearGradient id="paint28_linear_730_16520" x1="103.499" y1="37.3649" x2="56.1703" y2="101.121" gradientUnits="userSpaceOnUse">
<stop stop-opacity="0"/>
<stop offset="0.45" stop-color="#FF00FF"/>
<stop offset="0.53" stop-color="#CF00CF"/>
<stop offset="0.66" stop-color="#860086"/>
<stop offset="1" stop-color="#4D004D" stop-opacity="0"/>
</linearGradient>
<radialGradient id="paint29_radial_730_16520" cx="0" cy="0" r="1" gradientUnits="userSpaceOnUse" gradientTransform="translate(60.3012 77.2393) rotate(81.6265) scale(1.7416 1.74384)">
<stop stop-color="#FF00FF"/>
<stop offset="0.12" stop-color="#C700C7"/>
<stop offset="0.24" stop-color="#920092"/>
<stop offset="0.37" stop-color="#660066"/>
<stop offset="0.5" stop-color="#410041"/>
<stop offset="0.62" stop-color="#240024"/>
<stop offset="0.75" stop-color="#100010"/>
<stop offset="0.88" stop-color="#040004"/>
<stop offset="1"/>
</radialGradient>
<radialGradient id="paint30_radial_730_16520" cx="0" cy="0" r="1" gradientUnits="userSpaceOnUse" gradientTransform="translate(50.357 83.7519) rotate(81.6265) scale(1.7416 1.74384)">
<stop stop-color="#FF00FF"/>
<stop offset="0.12" stop-color="#C700C7"/>
<stop offset="0.24" stop-color="#920092"/>
<stop offset="0.37" stop-color="#660066"/>
<stop offset="0.5" stop-color="#410041"/>
<stop offset="0.62" stop-color="#240024"/>
<stop offset="0.75" stop-color="#100010"/>
<stop offset="0.88" stop-color="#040004"/>
<stop offset="1"/>
</radialGradient>
<clipPath id="clip0_730_16520">
<rect width="105.437" height="120.052" fill="white" transform="translate(118.772) rotate(81.6265)"/>
</clipPath>
</defs>
</svg>
