<svg width="188" height="130" viewBox="0 0 188 130" fill="none" xmlns="http://www.w3.org/2000/svg">
<mask id="path-1-outside-1_1084_1601" maskUnits="userSpaceOnUse" x="-3" y="-3" width="194" height="136" fill="black">
<rect fill="white" x="-3" y="-3" width="194" height="136"/>
<path d="M27.103 72L21.674 50.996L17.847 12.548H2.45V0.799999H26.569L32.443 27.767L33.6 60.252H37.694L38.762 27.767L44.725 0.799999H68.755V12.548H53.358L49.62 50.996L43.657 72H27.103ZM2.45 72V16.642H14.109L16.245 50.106V72H2.45ZM54.96 72V50.106L57.096 16.642H68.755V72H54.96ZM123.021 72L117.681 48.682L114.032 12.459H99.8807V0.799999H121.864L127.204 23.495L132.099 60.252H146.072V72H123.021ZM99.8807 72V16.998H110.205L112.074 44.677L113.231 72H99.8807ZM135.659 55.713L133.701 31.327L132.633 0.799999H146.072V55.713H135.659ZM13.696 129L10.768 117.672L8.704 96.936H0.4V90.6H13.408L16.576 105.144L17.2 122.664H19.408L19.984 105.144L23.2 90.6H36.16V96.936H27.856L25.84 117.672L22.624 129H13.696ZM0.4 129V99.144H6.688L7.84 117.192V129H0.4ZM28.72 129V117.192L29.872 99.144H36.16V129H28.72ZM40.8509 129L46.1789 90.6H58.6109L59.3789 96.936H51.5069L51.3149 105.96L50.2109 114.648H53.5229L51.8429 120.984H49.5389L48.2429 129H40.8509ZM56.4029 129L53.5709 105.96L53.4269 99.384H59.5709L63.7949 129H56.4029ZM76.7151 129.432C73.6911 129.224 71.4831 128.368 70.0911 126.864C68.7151 125.36 67.9631 123.016 67.8351 119.832C67.8191 119.32 67.8111 118.76 67.8111 118.152C67.8111 117.528 67.8271 116.912 67.8591 116.304C67.8911 115.68 67.9471 115.112 68.0271 114.6H74.7951C74.7311 115.768 74.6911 116.92 74.6751 118.056C74.6591 119.192 74.6991 120.232 74.7951 121.176C74.8431 121.736 75.0271 122.208 75.3471 122.592C75.6831 122.96 76.1391 123.232 76.7151 123.408V129.432ZM79.8831 129.432V123.384C80.3951 123.208 80.8031 122.936 81.1071 122.568C81.4111 122.184 81.5951 121.72 81.6591 121.176C81.7231 120.632 81.7631 120.096 81.7791 119.568C81.8111 119.024 81.8111 118.488 81.7791 117.96C81.7631 117.416 81.7231 116.872 81.6591 116.328C81.5951 115.656 81.3071 115.04 80.7951 114.48C80.2831 113.92 79.6431 113.56 78.8751 113.4L74.4591 112.392C72.7791 112.008 71.4511 111.408 70.4751 110.592C69.4991 109.776 68.7951 108.76 68.3631 107.544C67.9311 106.328 67.6911 104.92 67.6431 103.32C67.6271 102.616 67.6191 101.992 67.6191 101.448C67.6191 100.888 67.6271 100.312 67.6431 99.72C67.7711 96.552 68.5391 94.216 69.9471 92.712C71.3711 91.208 73.6271 90.36 76.7151 90.168V96.192C76.1711 96.368 75.7391 96.64 75.4191 97.008C75.1151 97.376 74.9231 97.832 74.8431 98.376C74.7471 99.192 74.6991 100.016 74.6991 100.848C74.6991 101.68 74.7471 102.504 74.8431 103.32C74.9231 103.96 75.1471 104.552 75.5151 105.096C75.8831 105.624 76.4751 105.976 77.2911 106.152L81.1791 106.968C82.9871 107.352 84.4431 107.968 85.5471 108.816C86.6671 109.648 87.4911 110.696 88.0191 111.96C88.5471 113.224 88.8431 114.68 88.9071 116.328C88.9231 116.696 88.9311 117.08 88.9311 117.48C88.9311 117.88 88.9231 118.28 88.9071 118.68C88.8911 119.08 88.8751 119.464 88.8591 119.832C88.7311 123.016 87.9631 125.368 86.5551 126.888C85.1631 128.392 82.9391 129.24 79.8831 129.432ZM81.7071 105C81.7551 103.896 81.7871 102.792 81.8031 101.688C81.8191 100.584 81.8031 99.48 81.7551 98.376C81.7391 97.816 81.5711 97.352 81.2511 96.984C80.9311 96.6 80.4751 96.328 79.8831 96.168V90.168C82.8911 90.376 85.0831 91.232 86.4591 92.736C87.8351 94.224 88.5871 96.552 88.7151 99.72C88.7471 100.408 88.7471 101.248 88.7151 102.24C88.6991 103.232 88.6671 104.152 88.6191 105H81.7071ZM98.8101 129V99.144H106.01V129H98.8101ZM92.1381 96.936V90.6H112.634V96.936H92.1381ZM116.691 129V90.6H123.891V129H116.691ZM127.107 129V122.664H134.259V129H127.107ZM127.107 112.632V106.296H133.779V112.632H127.107ZM127.107 96.936V90.6H134.259V96.936H127.107ZM153.427 129L149.827 116.04H149.779V109.704H149.827C150.835 109.704 151.595 109.472 152.107 109.008C152.619 108.544 152.899 107.896 152.947 107.064C152.995 106.28 153.027 105.464 153.043 104.616C153.059 103.752 153.059 102.896 153.043 102.048C153.027 101.184 152.995 100.36 152.947 99.576C152.899 98.728 152.619 98.08 152.107 97.632C151.595 97.168 150.835 96.936 149.827 96.936H149.779V90.6H149.827C153.411 90.6 155.995 91.328 157.579 92.784C159.179 94.224 160.035 96.616 160.147 99.96C160.179 100.856 160.195 101.64 160.195 102.312C160.211 102.984 160.211 103.656 160.195 104.328C160.195 105 160.179 105.784 160.147 106.68C160.003 110.68 158.755 113.352 156.403 114.696L160.915 129H153.427ZM139.459 129V90.6H146.659V129H139.459ZM174.35 129.432C171.326 129.224 169.118 128.368 167.726 126.864C166.35 125.36 165.598 123.016 165.47 119.832C165.454 119.32 165.446 118.76 165.446 118.152C165.446 117.528 165.462 116.912 165.494 116.304C165.526 115.68 165.582 115.112 165.662 114.6H172.43C172.366 115.768 172.326 116.92 172.31 118.056C172.294 119.192 172.334 120.232 172.43 121.176C172.478 121.736 172.662 122.208 172.982 122.592C173.318 122.96 173.774 123.232 174.35 123.408V129.432ZM177.518 129.432V123.384C178.03 123.208 178.438 122.936 178.742 122.568C179.046 122.184 179.23 121.72 179.294 121.176C179.358 120.632 179.398 120.096 179.414 119.568C179.446 119.024 179.446 118.488 179.414 117.96C179.398 117.416 179.358 116.872 179.294 116.328C179.23 115.656 178.942 115.04 178.43 114.48C177.918 113.92 177.278 113.56 176.51 113.4L172.094 112.392C170.414 112.008 169.086 111.408 168.11 110.592C167.134 109.776 166.43 108.76 165.998 107.544C165.566 106.328 165.326 104.92 165.278 103.32C165.262 102.616 165.254 101.992 165.254 101.448C165.254 100.888 165.262 100.312 165.278 99.72C165.406 96.552 166.174 94.216 167.582 92.712C169.006 91.208 171.262 90.36 174.35 90.168V96.192C173.806 96.368 173.374 96.64 173.054 97.008C172.75 97.376 172.558 97.832 172.478 98.376C172.382 99.192 172.334 100.016 172.334 100.848C172.334 101.68 172.382 102.504 172.478 103.32C172.558 103.96 172.782 104.552 173.15 105.096C173.518 105.624 174.11 105.976 174.926 106.152L178.814 106.968C180.622 107.352 182.078 107.968 183.182 108.816C184.302 109.648 185.126 110.696 185.654 111.96C186.182 113.224 186.478 114.68 186.542 116.328C186.558 116.696 186.566 117.08 186.566 117.48C186.566 117.88 186.558 118.28 186.542 118.68C186.526 119.08 186.51 119.464 186.494 119.832C186.366 123.016 185.598 125.368 184.19 126.888C182.798 128.392 180.574 129.24 177.518 129.432ZM179.342 105C179.39 103.896 179.422 102.792 179.438 101.688C179.454 100.584 179.438 99.48 179.39 98.376C179.374 97.816 179.206 97.352 178.886 96.984C178.566 96.6 178.11 96.328 177.518 96.168V90.168C180.526 90.376 182.718 91.232 184.094 92.736C185.47 94.224 186.222 96.552 186.35 99.72C186.382 100.408 186.382 101.248 186.35 102.24C186.334 103.232 186.302 104.152 186.254 105H179.342Z"/>
<path d="M77.6307 72V0.799999H90.9807V72H77.6307Z"/>
<path d="M154.984 72V0.799999H168.334V72H154.984ZM174.297 72V60.252H187.558V72H174.297ZM174.297 41.651V29.903H186.668V41.651H174.297ZM174.297 12.548V0.799999H187.558V12.548H174.297Z"/>
</mask>
<path d="M27.103 72L21.674 50.996L17.847 12.548H2.45V0.799999H26.569L32.443 27.767L33.6 60.252H37.694L38.762 27.767L44.725 0.799999H68.755V12.548H53.358L49.62 50.996L43.657 72H27.103ZM2.45 72V16.642H14.109L16.245 50.106V72H2.45ZM54.96 72V50.106L57.096 16.642H68.755V72H54.96ZM123.021 72L117.681 48.682L114.032 12.459H99.8807V0.799999H121.864L127.204 23.495L132.099 60.252H146.072V72H123.021ZM99.8807 72V16.998H110.205L112.074 44.677L113.231 72H99.8807ZM135.659 55.713L133.701 31.327L132.633 0.799999H146.072V55.713H135.659ZM13.696 129L10.768 117.672L8.704 96.936H0.4V90.6H13.408L16.576 105.144L17.2 122.664H19.408L19.984 105.144L23.2 90.6H36.16V96.936H27.856L25.84 117.672L22.624 129H13.696ZM0.4 129V99.144H6.688L7.84 117.192V129H0.4ZM28.72 129V117.192L29.872 99.144H36.16V129H28.72ZM40.8509 129L46.1789 90.6H58.6109L59.3789 96.936H51.5069L51.3149 105.96L50.2109 114.648H53.5229L51.8429 120.984H49.5389L48.2429 129H40.8509ZM56.4029 129L53.5709 105.96L53.4269 99.384H59.5709L63.7949 129H56.4029ZM76.7151 129.432C73.6911 129.224 71.4831 128.368 70.0911 126.864C68.7151 125.36 67.9631 123.016 67.8351 119.832C67.8191 119.32 67.8111 118.76 67.8111 118.152C67.8111 117.528 67.8271 116.912 67.8591 116.304C67.8911 115.68 67.9471 115.112 68.0271 114.6H74.7951C74.7311 115.768 74.6911 116.92 74.6751 118.056C74.6591 119.192 74.6991 120.232 74.7951 121.176C74.8431 121.736 75.0271 122.208 75.3471 122.592C75.6831 122.96 76.1391 123.232 76.7151 123.408V129.432ZM79.8831 129.432V123.384C80.3951 123.208 80.8031 122.936 81.1071 122.568C81.4111 122.184 81.5951 121.72 81.6591 121.176C81.7231 120.632 81.7631 120.096 81.7791 119.568C81.8111 119.024 81.8111 118.488 81.7791 117.96C81.7631 117.416 81.7231 116.872 81.6591 116.328C81.5951 115.656 81.3071 115.04 80.7951 114.48C80.2831 113.92 79.6431 113.56 78.8751 113.4L74.4591 112.392C72.7791 112.008 71.4511 111.408 70.4751 110.592C69.4991 109.776 68.7951 108.76 68.3631 107.544C67.9311 106.328 67.6911 104.92 67.6431 103.32C67.6271 102.616 67.6191 101.992 67.6191 101.448C67.6191 100.888 67.6271 100.312 67.6431 99.72C67.7711 96.552 68.5391 94.216 69.9471 92.712C71.3711 91.208 73.6271 90.36 76.7151 90.168V96.192C76.1711 96.368 75.7391 96.64 75.4191 97.008C75.1151 97.376 74.9231 97.832 74.8431 98.376C74.7471 99.192 74.6991 100.016 74.6991 100.848C74.6991 101.68 74.7471 102.504 74.8431 103.32C74.9231 103.96 75.1471 104.552 75.5151 105.096C75.8831 105.624 76.4751 105.976 77.2911 106.152L81.1791 106.968C82.9871 107.352 84.4431 107.968 85.5471 108.816C86.6671 109.648 87.4911 110.696 88.0191 111.96C88.5471 113.224 88.8431 114.68 88.9071 116.328C88.9231 116.696 88.9311 117.08 88.9311 117.48C88.9311 117.88 88.9231 118.28 88.9071 118.68C88.8911 119.08 88.8751 119.464 88.8591 119.832C88.7311 123.016 87.9631 125.368 86.5551 126.888C85.1631 128.392 82.9391 129.24 79.8831 129.432ZM81.7071 105C81.7551 103.896 81.7871 102.792 81.8031 101.688C81.8191 100.584 81.8031 99.48 81.7551 98.376C81.7391 97.816 81.5711 97.352 81.2511 96.984C80.9311 96.6 80.4751 96.328 79.8831 96.168V90.168C82.8911 90.376 85.0831 91.232 86.4591 92.736C87.8351 94.224 88.5871 96.552 88.7151 99.72C88.7471 100.408 88.7471 101.248 88.7151 102.24C88.6991 103.232 88.6671 104.152 88.6191 105H81.7071ZM98.8101 129V99.144H106.01V129H98.8101ZM92.1381 96.936V90.6H112.634V96.936H92.1381ZM116.691 129V90.6H123.891V129H116.691ZM127.107 129V122.664H134.259V129H127.107ZM127.107 112.632V106.296H133.779V112.632H127.107ZM127.107 96.936V90.6H134.259V96.936H127.107ZM153.427 129L149.827 116.04H149.779V109.704H149.827C150.835 109.704 151.595 109.472 152.107 109.008C152.619 108.544 152.899 107.896 152.947 107.064C152.995 106.28 153.027 105.464 153.043 104.616C153.059 103.752 153.059 102.896 153.043 102.048C153.027 101.184 152.995 100.36 152.947 99.576C152.899 98.728 152.619 98.08 152.107 97.632C151.595 97.168 150.835 96.936 149.827 96.936H149.779V90.6H149.827C153.411 90.6 155.995 91.328 157.579 92.784C159.179 94.224 160.035 96.616 160.147 99.96C160.179 100.856 160.195 101.64 160.195 102.312C160.211 102.984 160.211 103.656 160.195 104.328C160.195 105 160.179 105.784 160.147 106.68C160.003 110.68 158.755 113.352 156.403 114.696L160.915 129H153.427ZM139.459 129V90.6H146.659V129H139.459ZM174.35 129.432C171.326 129.224 169.118 128.368 167.726 126.864C166.35 125.36 165.598 123.016 165.47 119.832C165.454 119.32 165.446 118.76 165.446 118.152C165.446 117.528 165.462 116.912 165.494 116.304C165.526 115.68 165.582 115.112 165.662 114.6H172.43C172.366 115.768 172.326 116.92 172.31 118.056C172.294 119.192 172.334 120.232 172.43 121.176C172.478 121.736 172.662 122.208 172.982 122.592C173.318 122.96 173.774 123.232 174.35 123.408V129.432ZM177.518 129.432V123.384C178.03 123.208 178.438 122.936 178.742 122.568C179.046 122.184 179.23 121.72 179.294 121.176C179.358 120.632 179.398 120.096 179.414 119.568C179.446 119.024 179.446 118.488 179.414 117.96C179.398 117.416 179.358 116.872 179.294 116.328C179.23 115.656 178.942 115.04 178.43 114.48C177.918 113.92 177.278 113.56 176.51 113.4L172.094 112.392C170.414 112.008 169.086 111.408 168.11 110.592C167.134 109.776 166.43 108.76 165.998 107.544C165.566 106.328 165.326 104.92 165.278 103.32C165.262 102.616 165.254 101.992 165.254 101.448C165.254 100.888 165.262 100.312 165.278 99.72C165.406 96.552 166.174 94.216 167.582 92.712C169.006 91.208 171.262 90.36 174.35 90.168V96.192C173.806 96.368 173.374 96.64 173.054 97.008C172.75 97.376 172.558 97.832 172.478 98.376C172.382 99.192 172.334 100.016 172.334 100.848C172.334 101.68 172.382 102.504 172.478 103.32C172.558 103.96 172.782 104.552 173.15 105.096C173.518 105.624 174.11 105.976 174.926 106.152L178.814 106.968C180.622 107.352 182.078 107.968 183.182 108.816C184.302 109.648 185.126 110.696 185.654 111.96C186.182 113.224 186.478 114.68 186.542 116.328C186.558 116.696 186.566 117.08 186.566 117.48C186.566 117.88 186.558 118.28 186.542 118.68C186.526 119.08 186.51 119.464 186.494 119.832C186.366 123.016 185.598 125.368 184.19 126.888C182.798 128.392 180.574 129.24 177.518 129.432ZM179.342 105C179.39 103.896 179.422 102.792 179.438 101.688C179.454 100.584 179.438 99.48 179.39 98.376C179.374 97.816 179.206 97.352 178.886 96.984C178.566 96.6 178.11 96.328 177.518 96.168V90.168C180.526 90.376 182.718 91.232 184.094 92.736C185.47 94.224 186.222 96.552 186.35 99.72C186.382 100.408 186.382 101.248 186.35 102.24C186.334 103.232 186.302 104.152 186.254 105H179.342Z" fill="#5A189A"/>
<path d="M77.6307 72V0.799999H90.9807V72H77.6307Z" fill="#00CAFF"/>
<path d="M154.984 72V0.799999H168.334V72H154.984ZM174.297 72V60.252H187.558V72H174.297ZM174.297 41.651V29.903H186.668V41.651H174.297ZM174.297 12.548V0.799999H187.558V12.548H174.297Z" fill="#FFC14D"/>
<path d="M27.103 72L24.1985 72.7507L24.7798 75H27.103V72ZM21.674 50.996L18.6888 51.2931L18.7116 51.5231L18.7695 51.7467L21.674 50.996ZM17.847 12.548L20.8322 12.2509L20.5632 9.548H17.847V12.548ZM2.45 12.548H-0.55V15.548H2.45V12.548ZM2.45 0.799999V-2.2H-0.55V0.799999H2.45ZM26.569 0.799999L29.5003 0.161505L28.9859 -2.2H26.569V0.799999ZM32.443 27.767L35.4411 27.6602L35.4315 27.3914L35.3743 27.1285L32.443 27.767ZM33.6 60.252L30.6019 60.3588L30.7049 63.252H33.6V60.252ZM37.694 60.252V63.252H40.597L40.6924 60.3506L37.694 60.252ZM38.762 27.767L35.8328 27.1193L35.7728 27.3906L35.7636 27.6684L38.762 27.767ZM44.725 0.799999V-2.2H42.3159L41.7958 0.152279L44.725 0.799999ZM68.755 0.799999H71.755V-2.2H68.755V0.799999ZM68.755 12.548V15.548H71.755V12.548H68.755ZM53.358 12.548V9.548H50.6355L50.3721 12.2577L53.358 12.548ZM49.62 50.996L52.506 51.8153L52.5798 51.5553L52.6059 51.2863L49.62 50.996ZM43.657 72V75H45.9239L46.543 72.8193L43.657 72ZM2.45 72H-0.55V75H2.45V72ZM2.45 16.642V13.642H-0.55V16.642H2.45ZM14.109 16.642L17.1029 16.4509L16.9236 13.642H14.109V16.642ZM16.245 50.106H19.245V50.0104L19.2389 49.9149L16.245 50.106ZM16.245 72V75H19.245V72H16.245ZM54.96 72H51.96V75H54.96V72ZM54.96 50.106L51.9661 49.9149L51.96 50.0104V50.106H54.96ZM57.096 16.642V13.642H54.2814L54.1021 16.4509L57.096 16.642ZM68.755 16.642H71.755V13.642H68.755V16.642ZM68.755 72V75H71.755V72H68.755ZM30.0075 71.2493L24.5785 50.2452L18.7695 51.7467L24.1985 72.7507L30.0075 71.2493ZM24.6592 50.6989L20.8322 12.2509L14.8618 12.8451L18.6888 51.2931L24.6592 50.6989ZM17.847 9.548H2.45V15.548H17.847V9.548ZM5.45 12.548V0.799999H-0.55V12.548H5.45ZM2.45 3.8H26.569V-2.2H2.45V3.8ZM23.6377 1.43849L29.5117 28.4055L35.3743 27.1285L29.5003 0.161505L23.6377 1.43849ZM29.4449 27.8738L30.6019 60.3588L36.5981 60.1452L35.4411 27.6602L29.4449 27.8738ZM33.6 63.252H37.694V57.252H33.6V63.252ZM40.6924 60.3506L41.7604 27.8656L35.7636 27.6684L34.6956 60.1534L40.6924 60.3506ZM41.6912 28.4147L47.6542 1.44772L41.7958 0.152279L35.8328 27.1193L41.6912 28.4147ZM44.725 3.8H68.755V-2.2H44.725V3.8ZM65.755 0.799999V12.548H71.755V0.799999H65.755ZM68.755 9.548H53.358V15.548H68.755V9.548ZM50.3721 12.2577L46.6341 50.7057L52.6059 51.2863L56.3439 12.8383L50.3721 12.2577ZM46.7341 50.1767L40.771 71.1807L46.543 72.8193L52.506 51.8153L46.7341 50.1767ZM43.657 69H27.103V75H43.657V69ZM5.45 72V16.642H-0.55V72H5.45ZM2.45 19.642H14.109V13.642H2.45V19.642ZM11.1151 16.8331L13.2511 50.2971L19.2389 49.9149L17.1029 16.4509L11.1151 16.8331ZM13.245 50.106V72H19.245V50.106H13.245ZM16.245 69H2.45V75H16.245V69ZM57.96 72V50.106H51.96V72H57.96ZM57.9539 50.2971L60.0899 16.8331L54.1021 16.4509L51.9661 49.9149L57.9539 50.2971ZM57.096 19.642H68.755V13.642H57.096V19.642ZM65.755 16.642V72H71.755V16.642H65.755ZM68.755 69H54.96V75H68.755V69ZM77.6307 72H74.6307V75H77.6307V72ZM77.6307 0.799999V-2.2H74.6307V0.799999H77.6307ZM90.9807 0.799999H93.9807V-2.2H90.9807V0.799999ZM90.9807 72V75H93.9807V72H90.9807ZM80.6307 72V0.799999H74.6307V72H80.6307ZM77.6307 3.8H90.9807V-2.2H77.6307V3.8ZM87.9807 0.799999V72H93.9807V0.799999H87.9807ZM90.9807 69H77.6307V75H90.9807V69ZM123.021 72L120.096 72.6697L120.63 75H123.021V72ZM117.681 48.682L114.696 48.9827L114.715 49.1691L114.756 49.3517L117.681 48.682ZM114.032 12.459L117.017 12.1583L116.745 9.459H114.032V12.459ZM99.8807 12.459H96.8807V15.459H99.8807V12.459ZM99.8807 0.799999V-2.2H96.8807V0.799999H99.8807ZM121.864 0.799999L124.784 0.112881L124.24 -2.2H121.864V0.799999ZM127.204 23.495L130.177 23.099L130.158 22.9521L130.124 22.8079L127.204 23.495ZM132.099 60.252L129.125 60.648L129.472 63.252H132.099V60.252ZM146.072 60.252H149.072V57.252H146.072V60.252ZM146.072 72V75H149.072V72H146.072ZM99.8807 72H96.8807V75H99.8807V72ZM99.8807 16.998V13.998H96.8807V16.998H99.8807ZM110.205 16.998L113.198 16.7959L113.009 13.998H110.205V16.998ZM112.074 44.677L115.071 44.5501L115.069 44.5125L115.067 44.4749L112.074 44.677ZM113.231 72V75H116.36L116.228 71.8731L113.231 72ZM135.659 55.713L132.668 55.9531L132.89 58.713H135.659V55.713ZM133.701 31.327L130.702 31.4319L130.705 31.4996L130.71 31.5671L133.701 31.327ZM132.633 0.799999V-2.2H129.526L129.635 0.90489L132.633 0.799999ZM146.072 0.799999H149.072V-2.2H146.072V0.799999ZM146.072 55.713V58.713H149.072V55.713H146.072ZM125.945 71.3303L120.605 48.0123L114.756 49.3517L120.096 72.6697L125.945 71.3303ZM120.666 48.3813L117.017 12.1583L111.047 12.7597L114.696 48.9827L120.666 48.3813ZM114.032 9.459H99.8807V15.459H114.032V9.459ZM102.881 12.459V0.799999H96.8807V12.459H102.881ZM99.8807 3.8H121.864V-2.2H99.8807V3.8ZM118.943 1.48712L124.283 24.1821L130.124 22.8079L124.784 0.112881L118.943 1.48712ZM124.23 23.891L129.125 60.648L135.072 59.856L130.177 23.099L124.23 23.891ZM132.099 63.252H146.072V57.252H132.099V63.252ZM143.072 60.252V72H149.072V60.252H143.072ZM146.072 69H123.021V75H146.072V69ZM102.881 72V16.998H96.8807V72H102.881ZM99.8807 19.998H110.205V13.998H99.8807V19.998ZM107.211 17.2001L109.08 44.8791L115.067 44.4749L113.198 16.7959L107.211 17.2001ZM109.076 44.8039L110.233 72.1269L116.228 71.8731L115.071 44.5501L109.076 44.8039ZM113.231 69H99.8807V75H113.231V69ZM138.649 55.4729L136.691 31.0869L130.71 31.5671L132.668 55.9531L138.649 55.4729ZM136.699 31.2221L135.631 0.695107L129.635 0.90489L130.702 31.4319L136.699 31.2221ZM132.633 3.8H146.072V-2.2H132.633V3.8ZM143.072 0.799999V55.713H149.072V0.799999H143.072ZM146.072 52.713H135.659V58.713H146.072V52.713ZM154.984 72H151.984V75H154.984V72ZM154.984 0.799999V-2.2H151.984V0.799999H154.984ZM168.334 0.799999H171.334V-2.2H168.334V0.799999ZM168.334 72V75H171.334V72H168.334ZM174.297 72H171.297V75H174.297V72ZM174.297 60.252V57.252H171.297V60.252H174.297ZM187.558 60.252H190.558V57.252H187.558V60.252ZM187.558 72V75H190.558V72H187.558ZM174.297 41.651H171.297V44.651H174.297V41.651ZM174.297 29.903V26.903H171.297V29.903H174.297ZM186.668 29.903H189.668V26.903H186.668V29.903ZM186.668 41.651V44.651H189.668V41.651H186.668ZM174.297 12.548H171.297V15.548H174.297V12.548ZM174.297 0.799999V-2.2H171.297V0.799999H174.297ZM187.558 0.799999H190.558V-2.2H187.558V0.799999ZM187.558 12.548V15.548H190.558V12.548H187.558ZM157.984 72V0.799999H151.984V72H157.984ZM154.984 3.8H168.334V-2.2H154.984V3.8ZM165.334 0.799999V72H171.334V0.799999H165.334ZM168.334 69H154.984V75H168.334V69ZM177.297 72V60.252H171.297V72H177.297ZM174.297 63.252H187.558V57.252H174.297V63.252ZM184.558 60.252V72H190.558V60.252H184.558ZM187.558 69H174.297V75H187.558V69ZM177.297 41.651V29.903H171.297V41.651H177.297ZM174.297 32.903H186.668V26.903H174.297V32.903ZM183.668 29.903V41.651H189.668V29.903H183.668ZM186.668 38.651H174.297V44.651H186.668V38.651ZM177.297 12.548V0.799999H171.297V12.548H177.297ZM174.297 3.8H187.558V-2.2H174.297V3.8ZM184.558 0.799999V12.548H190.558V0.799999H184.558ZM187.558 9.548H174.297V15.548H187.558V9.548ZM13.696 129L10.7915 129.751L11.3728 132H13.696V129ZM10.768 117.672L7.78275 117.969L7.80564 118.199L7.86346 118.423L10.768 117.672ZM8.704 96.936L11.6892 96.6389L11.4202 93.936H8.704V96.936ZM0.4 96.936H-2.6V99.936H0.4V96.936ZM0.4 90.6V87.6H-2.6V90.6H0.4ZM13.408 90.6L16.3393 89.9615L15.8249 87.6H13.408V90.6ZM16.576 105.144L19.5741 105.037L19.5645 104.768L19.5073 104.506L16.576 105.144ZM17.2 122.664L14.2019 122.771L14.3049 125.664H17.2V122.664ZM19.408 122.664V125.664H22.311L22.4064 122.763L19.408 122.664ZM19.984 105.144L17.0548 104.496L16.9948 104.768L16.9856 105.045L19.984 105.144ZM23.2 90.6V87.6H20.7909L20.2708 89.9523L23.2 90.6ZM36.16 90.6H39.16V87.6H36.16V90.6ZM36.16 96.936V99.936H39.16V96.936H36.16ZM27.856 96.936V93.936H25.1335L24.8701 96.6457L27.856 96.936ZM25.84 117.672L28.726 118.491L28.7998 118.231L28.8259 117.962L25.84 117.672ZM22.624 129V132H24.8909L25.51 129.819L22.624 129ZM0.4 129H-2.6V132H0.4V129ZM0.4 99.144V96.144H-2.6V99.144H0.4ZM6.688 99.144L9.68191 98.9529L9.50262 96.144H6.688V99.144ZM7.84 117.192H10.84V117.096L10.8339 117.001L7.84 117.192ZM7.84 129V132H10.84V129H7.84ZM28.72 129H25.72V132H28.72V129ZM28.72 117.192L25.7261 117.001L25.72 117.096V117.192H28.72ZM29.872 99.144V96.144H27.0574L26.8781 98.9529L29.872 99.144ZM36.16 99.144H39.16V96.144H36.16V99.144ZM36.16 129V132H39.16V129H36.16ZM16.6005 128.249L13.6725 116.921L7.86346 118.423L10.7915 129.751L16.6005 128.249ZM13.7532 117.375L11.6892 96.6389L5.71875 97.2331L7.78275 117.969L13.7532 117.375ZM8.704 93.936H0.4V99.936H8.704V93.936ZM3.4 96.936V90.6H-2.6V96.936H3.4ZM0.4 93.6H13.408V87.6H0.4V93.6ZM10.4767 91.2385L13.6447 105.782L19.5073 104.506L16.3393 89.9615L10.4767 91.2385ZM13.5779 105.251L14.2019 122.771L20.1981 122.557L19.5741 105.037L13.5779 105.251ZM17.2 125.664H19.408V119.664H17.2V125.664ZM22.4064 122.763L22.9824 105.243L16.9856 105.045L16.4096 122.565L22.4064 122.763ZM22.9132 105.792L26.1292 91.2477L20.2708 89.9523L17.0548 104.496L22.9132 105.792ZM23.2 93.6H36.16V87.6H23.2V93.6ZM33.16 90.6V96.936H39.16V90.6H33.16ZM36.16 93.936H27.856V99.936H36.16V93.936ZM24.8701 96.6457L22.8541 117.382L28.8259 117.962L30.8419 97.2263L24.8701 96.6457ZM22.9541 116.853L19.738 128.181L25.51 129.819L28.726 118.491L22.9541 116.853ZM22.624 126H13.696V132H22.624V126ZM3.4 129V99.144H-2.6V129H3.4ZM0.4 102.144H6.688V96.144H0.4V102.144ZM3.69409 99.3351L4.84609 117.383L10.8339 117.001L9.68191 98.9529L3.69409 99.3351ZM4.84 117.192V129H10.84V117.192H4.84ZM7.84 126H0.4V132H7.84V126ZM31.72 129V117.192H25.72V129H31.72ZM31.7139 117.383L32.8659 99.3351L26.8781 98.9529L25.7261 117.001L31.7139 117.383ZM29.872 102.144H36.16V96.144H29.872V102.144ZM33.16 99.144V129H39.16V99.144H33.16ZM36.16 126H28.72V132H36.16V126ZM40.8509 129L37.8793 128.588L37.4059 132H40.8509V129ZM46.1789 90.6V87.6H43.5664L43.2073 90.1877L46.1789 90.6ZM58.6109 90.6L61.5891 90.239L61.2692 87.6H58.6109V90.6ZM59.3789 96.936V99.936H62.7645L62.3571 96.575L59.3789 96.936ZM51.5069 96.936V93.936H48.57L48.5076 96.8722L51.5069 96.936ZM51.3149 105.96L54.2909 106.338L54.3108 106.182L54.3142 106.024L51.3149 105.96ZM50.2109 114.648L47.2348 114.27L46.8055 117.648H50.2109V114.648ZM53.5229 114.648L56.4227 115.417L57.422 111.648H53.5229V114.648ZM51.8429 120.984V123.984H54.1511L54.7427 121.753L51.8429 120.984ZM49.5389 120.984V117.984H46.9849L46.5773 120.505L49.5389 120.984ZM48.2429 129V132H50.7968L51.2044 129.479L48.2429 129ZM56.4029 129L53.4253 129.366L53.749 132H56.4029V129ZM53.5709 105.96L50.5716 106.026L50.5749 106.176L50.5933 106.326L53.5709 105.96ZM53.4269 99.384V96.384H50.3605L50.4276 99.4497L53.4269 99.384ZM59.5709 99.384L62.5408 98.9604L62.1734 96.384H59.5709V99.384ZM63.7949 129V132H67.2531L66.7648 128.576L63.7949 129ZM43.8224 129.412L49.1504 91.0123L43.2073 90.1877L37.8793 128.588L43.8224 129.412ZM46.1789 93.6H58.6109V87.6H46.1789V93.6ZM55.6327 90.961L56.4007 97.297L62.3571 96.575L61.5891 90.239L55.6327 90.961ZM59.3789 93.936H51.5069V99.936H59.3789V93.936ZM48.5076 96.8722L48.3156 105.896L54.3142 106.024L54.5062 96.9998L48.5076 96.8722ZM48.3388 105.582L47.2348 114.27L53.1869 115.026L54.2909 106.338L48.3388 105.582ZM50.2109 117.648H53.5229V111.648H50.2109V117.648ZM50.6231 113.879L48.9431 120.215L54.7427 121.753L56.4227 115.417L50.6231 113.879ZM51.8429 117.984H49.5389V123.984H51.8429V117.984ZM46.5773 120.505L45.2813 128.521L51.2044 129.479L52.5004 121.463L46.5773 120.505ZM48.2429 126H40.8509V132H48.2429V126ZM59.3805 128.634L56.5485 105.594L50.5933 106.326L53.4253 129.366L59.3805 128.634ZM56.5702 105.894L56.4262 99.3183L50.4276 99.4497L50.5716 106.026L56.5702 105.894ZM53.4269 102.384H59.5709V96.384H53.4269V102.384ZM56.6009 99.8076L60.8249 129.424L66.7648 128.576L62.5408 98.9604L56.6009 99.8076ZM63.7949 126H56.4029V132H63.7949V126ZM76.7151 129.432L76.5093 132.425L79.7151 132.645V129.432H76.7151ZM70.0911 126.864L67.8777 128.889L67.8835 128.895L67.8894 128.902L70.0911 126.864ZM67.8351 119.832L64.8366 119.926L64.837 119.939L64.8375 119.952L67.8351 119.832ZM67.8591 116.304L70.855 116.462L70.8552 116.458L67.8591 116.304ZM68.0271 114.6V111.6H65.4595L65.0631 114.137L68.0271 114.6ZM74.7951 114.6L77.7906 114.764L77.964 111.6H74.7951V114.6ZM74.6751 118.056L71.6754 118.014L74.6751 118.056ZM74.7951 121.176L77.7842 120.92L77.7821 120.896L77.7797 120.872L74.7951 121.176ZM75.3471 122.592L73.0425 124.513L73.0859 124.565L73.1317 124.615L75.3471 122.592ZM76.7151 123.408H79.7151V121.188L77.5918 120.539L76.7151 123.408ZM79.8831 129.432H76.8831V132.626L80.0712 132.426L79.8831 129.432ZM79.8831 123.384L78.9079 120.547L76.8831 121.243V123.384H79.8831ZM81.1071 122.568L83.42 124.479L83.4399 124.455L83.4593 124.43L81.1071 122.568ZM81.6591 121.176L84.6386 121.527L81.6591 121.176ZM81.7791 119.568L78.7843 119.392L78.7818 119.434L78.7805 119.477L81.7791 119.568ZM81.7791 117.96L78.7804 118.048L78.7818 118.095L78.7846 118.141L81.7791 117.96ZM81.6591 116.328L78.6726 116.612L78.6758 116.646L78.6797 116.679L81.6591 116.328ZM80.7951 114.48L78.581 116.504L80.7951 114.48ZM78.8751 113.4L78.2075 116.325L78.2353 116.331L78.2633 116.337L78.8751 113.4ZM74.4591 112.392L73.7906 115.317L73.7915 115.317L74.4591 112.392ZM68.3631 107.544L71.19 106.54L68.3631 107.544ZM67.6431 103.32L64.6439 103.388L64.6441 103.399L64.6445 103.41L67.6431 103.32ZM67.6431 99.72L64.6456 99.5989L64.6448 99.6189L64.6442 99.6389L67.6431 99.72ZM69.9471 92.712L67.7687 90.6494L67.7628 90.6555L67.7571 90.6617L69.9471 92.712ZM76.7151 90.168H79.7151V86.9757L76.529 87.1738L76.7151 90.168ZM76.7151 96.192L77.6386 99.0463L79.7151 98.3745V96.192H76.7151ZM75.4191 97.008L73.1553 95.0395L73.1304 95.0681L73.1062 95.0974L75.4191 97.008ZM74.8431 98.376L71.875 97.9395L71.8687 97.9824L71.8637 98.0255L74.8431 98.376ZM74.8431 103.32L71.8637 103.671L71.8649 103.681L71.8663 103.692L74.8431 103.32ZM75.5151 105.096L73.0303 106.777L73.042 106.794L73.0539 106.811L75.5151 105.096ZM77.2911 106.152L76.6586 109.085L76.6668 109.086L76.6749 109.088L77.2911 106.152ZM81.1791 106.968L81.8024 104.033L81.7953 104.032L81.1791 106.968ZM85.5471 108.816L83.7197 111.195L83.7388 111.21L83.7581 111.224L85.5471 108.816ZM88.9071 116.328L85.9093 116.444L85.91 116.458L88.9071 116.328ZM88.9071 118.68L91.9047 118.8L88.9071 118.68ZM88.8591 119.832L85.8619 119.702L85.8615 119.711L88.8591 119.832ZM86.5551 126.888L84.3543 124.849L84.3534 124.85L86.5551 126.888ZM81.7071 105L78.71 104.87L78.5739 108H81.7071V105ZM81.7551 98.376L78.7563 98.4617L78.757 98.484L78.758 98.5063L81.7551 98.376ZM81.2511 96.984L78.9465 98.9046L78.9666 98.9288L78.9873 98.9525L81.2511 96.984ZM79.8831 96.168H76.8831V98.4648L79.1004 99.0641L79.8831 96.168ZM79.8831 90.168L80.0901 87.1751L76.8831 86.9534V90.168H79.8831ZM86.4591 92.736L84.2457 94.761L84.2511 94.7669L84.2565 94.7728L86.4591 92.736ZM88.7151 99.72L85.7176 99.8411L85.7179 99.8503L85.7184 99.8594L88.7151 99.72ZM88.7151 102.24L85.7167 102.143L85.7159 102.167L85.7155 102.192L88.7151 102.24ZM88.6191 105V108H91.4541L91.6143 105.17L88.6191 105ZM76.921 126.439C74.2998 126.259 72.9637 125.551 72.2928 124.826L67.8894 128.902C70.0026 131.185 73.0824 132.189 76.5093 132.425L76.921 126.439ZM72.3045 124.839C71.6114 124.081 70.9475 122.566 70.8327 119.711L64.8375 119.952C64.9788 123.466 65.8189 126.639 67.8777 128.889L72.3045 124.839ZM70.8337 119.738C70.8188 119.263 70.8111 118.734 70.8111 118.152H64.8111C64.8111 118.786 64.8195 119.377 64.8366 119.926L70.8337 119.738ZM70.8111 118.152C70.8111 117.579 70.8258 117.016 70.855 116.462L64.8633 116.146C64.8284 116.808 64.8111 117.477 64.8111 118.152H70.8111ZM70.8552 116.458C70.8829 115.917 70.93 115.454 70.9912 115.063L65.0631 114.137C64.9642 114.77 64.8993 115.443 64.8631 116.15L70.8552 116.458ZM68.0271 117.6H74.7951V111.6H68.0271V117.6ZM71.7996 114.436C71.7335 115.643 71.692 116.836 71.6754 118.014L77.6748 118.098C77.6902 117.004 77.7288 115.893 77.7906 114.764L71.7996 114.436ZM71.6754 118.014C71.6581 119.243 71.7008 120.401 71.8105 121.48L77.7797 120.872C77.6974 120.063 77.6601 119.141 77.6748 118.098L71.6754 118.014ZM71.8061 121.432C71.8997 122.525 72.2814 123.599 73.0425 124.513L77.6518 120.671C77.7019 120.732 77.7403 120.799 77.7642 120.86C77.7871 120.919 77.7863 120.945 77.7842 120.92L71.8061 121.432ZM73.1317 124.615C73.8989 125.455 74.8558 125.977 75.8385 126.277L77.5918 120.539C77.5045 120.512 77.4729 120.493 77.478 120.496C77.4806 120.497 77.4912 120.504 77.5072 120.517C77.5233 120.53 77.5424 120.547 77.5626 120.569L73.1317 124.615ZM73.7151 123.408V129.432H79.7151V123.408H73.7151ZM82.8831 129.432V123.384H76.8831V129.432H82.8831ZM80.8584 126.221C81.8212 125.89 82.7186 125.328 83.42 124.479L78.7942 120.657C78.8338 120.609 78.8761 120.574 78.909 120.552C78.94 120.531 78.9456 120.534 78.9079 120.547L80.8584 126.221ZM83.4593 124.43C84.1482 123.56 84.5175 122.556 84.6386 121.527L78.6797 120.825C78.6752 120.863 78.6714 120.859 78.6844 120.826C78.6982 120.791 78.7219 120.748 78.755 120.706L83.4593 124.43ZM84.6386 121.527C84.7123 120.899 84.759 120.277 84.7777 119.659L78.7805 119.477C78.7672 119.915 78.7339 120.365 78.6797 120.825L84.6386 121.527ZM84.7739 119.744C84.8127 119.085 84.8131 118.429 84.7736 117.779L78.7846 118.141C78.8092 118.547 78.8095 118.963 78.7843 119.392L84.7739 119.744ZM84.7778 117.872C84.7592 117.24 84.7128 116.608 84.6386 115.977L78.6797 116.679C78.7335 117.136 78.767 117.592 78.7804 118.048L84.7778 117.872ZM84.6456 116.044C84.5123 114.644 83.9035 113.434 83.0092 112.456L78.581 116.504C78.6554 116.586 78.6761 116.63 78.6775 116.633C78.6785 116.635 78.6771 116.632 78.6752 116.625C78.6734 116.619 78.6728 116.614 78.6726 116.612L84.6456 116.044ZM83.0092 112.456C82.0571 111.414 80.8493 110.747 79.487 110.463L78.2633 116.337C78.4369 116.373 78.5092 116.426 78.581 116.504L83.0092 112.456ZM79.5427 110.475L75.1267 109.467L73.7915 115.317L78.2075 116.325L79.5427 110.475ZM75.1276 109.467C73.7536 109.153 72.9063 108.714 72.3994 108.29L68.5509 112.894C69.9959 114.102 71.8047 114.863 73.7906 115.317L75.1276 109.467ZM72.3994 108.29C71.841 107.824 71.4452 107.258 71.19 106.54L65.5362 108.548C66.145 110.262 67.1573 111.728 68.5509 112.894L72.3994 108.29ZM71.19 106.54C70.8841 105.679 70.6826 104.59 70.6418 103.23L64.6445 103.41C64.6997 105.25 64.9782 106.977 65.5362 108.548L71.19 106.54ZM70.6423 103.252C70.6267 102.564 70.6191 101.964 70.6191 101.448H64.6191C64.6191 102.02 64.6275 102.668 64.6439 103.388L70.6423 103.252ZM70.6191 101.448C70.6191 100.917 70.6267 100.368 70.642 99.801L64.6442 99.6389C64.6275 100.256 64.6191 100.859 64.6191 101.448H70.6191ZM70.6407 99.8411C70.7546 97.0211 71.4262 95.5217 72.1372 94.7623L67.7571 90.6617C65.652 92.9103 64.7876 96.0829 64.6456 99.5989L70.6407 99.8411ZM72.1256 94.7746C72.8202 94.041 74.2046 93.3299 76.9013 93.1622L76.529 87.1738C73.0496 87.3901 69.9221 88.375 67.7687 90.6494L72.1256 94.7746ZM73.7151 90.168V96.192H79.7151V90.168H73.7151ZM75.7917 93.3377C74.8192 93.6523 73.8909 94.1935 73.1553 95.0395L77.6829 98.9765C77.6633 98.9991 77.6433 99.0186 77.6245 99.0346C77.6058 99.0505 77.5907 99.061 77.5816 99.0667C77.5631 99.0783 77.5759 99.0666 77.6386 99.0463L75.7917 93.3377ZM73.1062 95.0974C72.4031 95.9486 72.0224 96.9373 71.875 97.9395L77.8112 98.8125C77.8184 98.7632 77.8243 98.7609 77.812 98.7902C77.7987 98.8218 77.773 98.869 77.732 98.9186L73.1062 95.0974ZM71.8637 98.0255C71.7538 98.9593 71.6991 99.9003 71.6991 100.848H77.6991C77.6991 100.132 77.7404 99.4247 77.8226 98.7265L71.8637 98.0255ZM71.6991 100.848C71.6991 101.796 71.7538 102.737 71.8637 103.671L77.8226 102.969C77.7404 102.271 77.6991 101.564 77.6991 100.848H71.6991ZM71.8663 103.692C72.006 104.81 72.4025 105.849 73.0303 106.777L78 103.415C77.8917 103.255 77.8402 103.11 77.82 102.948L71.8663 103.692ZM73.0539 106.811C73.9725 108.129 75.3284 108.798 76.6586 109.085L77.9236 103.219C77.768 103.186 77.7333 103.157 77.7683 103.177C77.787 103.188 77.8202 103.211 77.8603 103.248C77.9008 103.285 77.9408 103.33 77.9763 103.381L73.0539 106.811ZM76.6749 109.088L80.5629 109.904L81.7953 104.032L77.9073 103.216L76.6749 109.088ZM80.5559 109.903C82.063 110.223 83.067 110.694 83.7197 111.195L87.3746 106.437C85.8192 105.242 83.9112 104.481 81.8024 104.033L80.5559 109.903ZM83.7581 111.224C84.4536 111.741 84.9349 112.36 85.2509 113.116L90.7873 110.804C90.0474 109.032 88.8807 107.555 87.3361 106.408L83.7581 111.224ZM85.2509 113.116C85.6161 113.99 85.8565 115.083 85.9094 116.444L91.9049 116.212C91.8297 114.277 91.4782 112.458 90.7873 110.804L85.2509 113.116ZM85.91 116.458C85.9239 116.779 85.9311 117.12 85.9311 117.48H91.9311C91.9311 117.04 91.9223 116.613 91.9043 116.198L85.91 116.458ZM85.9311 117.48C85.9311 117.84 85.9239 118.2 85.9095 118.56L91.9047 118.8C91.9223 118.36 91.9311 117.92 91.9311 117.48H85.9311ZM85.9095 118.56C85.8936 118.957 85.8778 119.337 85.862 119.702L91.8563 119.962C91.8725 119.591 91.8886 119.203 91.9047 118.8L85.9095 118.56ZM85.8615 119.711C85.7475 122.549 85.0747 124.072 84.3543 124.849L88.756 128.927C90.8515 126.664 91.7148 123.483 91.8567 119.952L85.8615 119.711ZM84.3534 124.85C83.6933 125.563 82.3554 126.271 79.695 126.438L80.0712 132.426C83.5229 132.209 86.633 131.221 88.7568 128.926L84.3534 124.85ZM84.7043 105.13C84.7535 103.997 84.7864 102.864 84.8028 101.731L78.8034 101.645C78.7879 102.72 78.7567 103.795 78.71 104.87L84.7043 105.13ZM84.8028 101.731C84.8196 100.569 84.8028 99.4075 84.7523 98.2457L78.758 98.5063C78.8034 99.5525 78.8186 100.599 78.8034 101.645L84.8028 101.731ZM84.7539 98.2903C84.7212 97.1454 84.357 95.9838 83.5149 95.0155L78.9873 98.9525C78.902 98.8544 78.8366 98.7404 78.7963 98.6293C78.7579 98.5233 78.7563 98.4585 78.7563 98.4617L84.7539 98.2903ZM83.5558 95.0634C82.7589 94.1071 81.7165 93.5559 80.6658 93.2719L79.1004 99.0641C79.1716 99.0833 79.173 99.0927 79.1323 99.0685C79.0873 99.0416 79.0167 98.9888 78.9465 98.9046L83.5558 95.0634ZM82.8831 96.168V90.168H76.8831V96.168H82.8831ZM79.6762 93.1609C82.279 93.3408 83.592 94.0465 84.2457 94.761L88.6725 90.711C86.5743 88.4175 83.5032 87.4112 80.0901 87.1751L79.6762 93.1609ZM84.2565 94.7728C84.94 95.5119 85.6029 97.0038 85.7176 99.8411L91.7127 99.5989C91.5713 96.1002 90.7302 92.9361 88.6617 90.6992L84.2565 94.7728ZM85.7184 99.8594C85.7455 100.443 85.7471 101.199 85.7167 102.143L91.7136 102.337C91.7471 101.297 91.7487 100.373 91.7119 99.5806L85.7184 99.8594ZM85.7155 102.192C85.7001 103.15 85.6693 104.029 85.6239 104.83L91.6143 105.17C91.665 104.275 91.6982 103.314 91.7147 102.288L85.7155 102.192ZM88.6191 102H81.7071V108H88.6191V102ZM98.8101 129H95.8101V132H98.8101V129ZM98.8101 99.144V96.144H95.8101V99.144H98.8101ZM106.01 99.144H109.01V96.144H106.01V99.144ZM106.01 129V132H109.01V129H106.01ZM92.1381 96.936H89.1381V99.936H92.1381V96.936ZM92.1381 90.6V87.6H89.1381V90.6H92.1381ZM112.634 90.6H115.634V87.6H112.634V90.6ZM112.634 96.936V99.936H115.634V96.936H112.634ZM101.81 129V99.144H95.8101V129H101.81ZM98.8101 102.144H106.01V96.144H98.8101V102.144ZM103.01 99.144V129H109.01V99.144H103.01ZM106.01 126H98.8101V132H106.01V126ZM95.1381 96.936V90.6H89.1381V96.936H95.1381ZM92.1381 93.6H112.634V87.6H92.1381V93.6ZM109.634 90.6V96.936H115.634V90.6H109.634ZM112.634 93.936H92.1381V99.936H112.634V93.936ZM116.691 129H113.691V132H116.691V129ZM116.691 90.6V87.6H113.691V90.6H116.691ZM123.891 90.6H126.891V87.6H123.891V90.6ZM123.891 129V132H126.891V129H123.891ZM127.107 129H124.107V132H127.107V129ZM127.107 122.664V119.664H124.107V122.664H127.107ZM134.259 122.664H137.259V119.664H134.259V122.664ZM134.259 129V132H137.259V129H134.259ZM127.107 112.632H124.107V115.632H127.107V112.632ZM127.107 106.296V103.296H124.107V106.296H127.107ZM133.779 106.296H136.779V103.296H133.779V106.296ZM133.779 112.632V115.632H136.779V112.632H133.779ZM127.107 96.936H124.107V99.936H127.107V96.936ZM127.107 90.6V87.6H124.107V90.6H127.107ZM134.259 90.6H137.259V87.6H134.259V90.6ZM134.259 96.936V99.936H137.259V96.936H134.259ZM119.691 129V90.6H113.691V129H119.691ZM116.691 93.6H123.891V87.6H116.691V93.6ZM120.891 90.6V129H126.891V90.6H120.891ZM123.891 126H116.691V132H123.891V126ZM130.107 129V122.664H124.107V129H130.107ZM127.107 125.664H134.259V119.664H127.107V125.664ZM131.259 122.664V129H137.259V122.664H131.259ZM134.259 126H127.107V132H134.259V126ZM130.107 112.632V106.296H124.107V112.632H130.107ZM127.107 109.296H133.779V103.296H127.107V109.296ZM130.779 106.296V112.632H136.779V106.296H130.779ZM133.779 109.632H127.107V115.632H133.779V109.632ZM130.107 96.936V90.6H124.107V96.936H130.107ZM127.107 93.6H134.259V87.6H127.107V93.6ZM131.259 90.6V96.936H137.259V90.6H131.259ZM134.259 93.936H127.107V99.936H134.259V93.936ZM153.427 129L150.537 129.803L151.147 132H153.427V129ZM149.827 116.04L152.718 115.237L152.108 113.04H149.827V116.04ZM149.779 116.04H146.779V119.04H149.779V116.04ZM149.779 109.704V106.704H146.779V109.704H149.779ZM152.107 109.008L150.093 106.785V106.785L152.107 109.008ZM152.947 107.064L149.953 106.881L149.952 106.891L152.947 107.064ZM153.043 104.616L156.043 104.673L156.043 104.672L153.043 104.616ZM153.043 102.048L150.044 102.104L150.044 102.105L153.043 102.048ZM152.947 99.576L149.952 99.7455L149.953 99.7593L152.947 99.576ZM152.107 97.632L150.093 99.855L150.112 99.8725L150.132 99.8897L152.107 97.632ZM149.779 96.936H146.779V99.936H149.779V96.936ZM149.779 90.6V87.6H146.779V90.6H149.779ZM157.579 92.784L155.549 94.9927L155.561 95.0033L155.572 95.0139L157.579 92.784ZM160.147 99.96L157.149 100.06L157.149 100.067L160.147 99.96ZM160.195 102.312H157.195V102.348L157.196 102.383L160.195 102.312ZM160.195 104.328L157.196 104.257L157.195 104.292V104.328H160.195ZM160.147 106.68L163.145 106.788L163.145 106.787L160.147 106.68ZM156.403 114.696L154.915 112.091L152.815 113.291L153.542 115.598L156.403 114.696ZM160.915 129V132H165.007L163.776 128.098L160.915 129ZM139.459 129H136.459V132H139.459V129ZM139.459 90.6V87.6H136.459V90.6H139.459ZM146.659 90.6H149.659V87.6H146.659V90.6ZM146.659 129V132H149.659V129H146.659ZM156.318 128.197L152.718 115.237L146.937 116.843L150.537 129.803L156.318 128.197ZM149.827 113.04H149.779V119.04H149.827V113.04ZM152.779 116.04V109.704H146.779V116.04H152.779ZM149.779 112.704H149.827V106.704H149.779V112.704ZM149.827 112.704C151.244 112.704 152.851 112.382 154.122 111.231L150.093 106.785C150.21 106.679 150.298 106.654 150.277 106.661C150.246 106.67 150.11 106.704 149.827 106.704V112.704ZM154.122 111.231C155.334 110.133 155.859 108.682 155.942 107.237L149.952 106.891C149.945 107.019 149.926 107.035 149.947 106.984C149.958 106.959 149.977 106.924 150.004 106.885C150.032 106.846 150.063 106.812 150.093 106.785L154.122 111.231ZM155.942 107.247C155.993 106.418 156.026 105.56 156.043 104.673L150.044 104.559C150.029 105.368 149.998 106.142 149.953 106.881L155.942 107.247ZM156.043 104.672C156.06 103.771 156.06 102.877 156.043 101.991L150.044 102.105C150.059 102.915 150.059 103.733 150.044 104.56L156.043 104.672ZM156.043 101.992C156.026 101.09 155.993 100.223 155.942 99.3927L149.953 99.7593C149.998 100.497 150.029 101.278 150.044 102.104L156.043 101.992ZM155.943 99.4065C155.861 97.9656 155.345 96.4782 154.083 95.3743L150.132 99.8897C150.09 99.8535 150.051 99.8103 150.016 99.7626C149.982 99.7152 149.96 99.6734 149.947 99.644C149.923 99.5864 149.944 99.6038 149.952 99.7455L155.943 99.4065ZM154.122 95.409C152.851 94.2575 151.244 93.936 149.827 93.936V99.936C150.11 99.936 150.246 99.9696 150.277 99.9793C150.298 99.9856 150.21 99.9611 150.093 99.855L154.122 95.409ZM149.827 93.936H149.779V99.936H149.827V93.936ZM152.779 96.936V90.6H146.779V96.936H152.779ZM149.779 93.6H149.827V87.6H149.779V93.6ZM149.827 93.6C153.127 93.6 154.787 94.292 155.549 94.9927L159.61 90.5753C157.204 88.364 153.696 87.6 149.827 87.6V93.6ZM155.572 95.0139C156.301 95.6699 157.05 97.0888 157.149 100.06L163.146 99.8596C163.021 96.1432 162.057 92.7781 159.586 90.5541L155.572 95.0139ZM157.149 100.067C157.18 100.938 157.195 101.685 157.195 102.312H163.195C163.195 101.595 163.178 100.774 163.145 99.8529L157.149 100.067ZM157.196 102.383C157.211 103.008 157.211 103.632 157.196 104.257L163.195 104.399C163.212 103.68 163.212 102.96 163.195 102.241L157.196 102.383ZM157.195 104.328C157.195 104.955 157.18 105.702 157.149 106.573L163.145 106.787C163.178 105.866 163.195 105.045 163.195 104.328H157.195ZM157.149 106.572C157.023 110.069 155.982 111.481 154.915 112.091L157.892 117.301C161.528 115.223 162.983 111.29 163.145 106.788L157.149 106.572ZM153.542 115.598L158.054 129.902L163.776 128.098L159.264 113.794L153.542 115.598ZM160.915 126H153.427V132H160.915V126ZM142.459 129V90.6H136.459V129H142.459ZM139.459 93.6H146.659V87.6H139.459V93.6ZM143.659 90.6V129H149.659V90.6H143.659ZM146.659 126H139.459V132H146.659V126ZM174.35 129.432L174.144 132.425L177.35 132.645V129.432H174.35ZM167.726 126.864L165.513 128.889L165.519 128.895L165.524 128.902L167.726 126.864ZM165.47 119.832L162.472 119.926L162.472 119.939L162.473 119.952L165.47 119.832ZM165.494 116.304L168.49 116.462L168.49 116.458L165.494 116.304ZM165.662 114.6V111.6H163.094L162.698 114.137L165.662 114.6ZM172.43 114.6L175.426 114.764L175.599 111.6H172.43V114.6ZM172.31 118.056L169.31 118.014L172.31 118.056ZM172.43 121.176L175.419 120.92L175.417 120.896L175.415 120.872L172.43 121.176ZM172.982 122.592L170.677 124.513L170.721 124.565L170.767 124.615L172.982 122.592ZM174.35 123.408H177.35V121.188L175.227 120.539L174.35 123.408ZM177.518 129.432H174.518V132.626L177.706 132.426L177.518 129.432ZM177.518 123.384L176.543 120.547L174.518 121.243V123.384H177.518ZM178.742 122.568L181.055 124.479L181.075 124.455L181.094 124.43L178.742 122.568ZM179.294 121.176L182.274 121.527L179.294 121.176ZM179.414 119.568L176.419 119.392L176.417 119.434L176.415 119.477L179.414 119.568ZM179.414 117.96L176.415 118.048L176.417 118.095L176.42 118.141L179.414 117.96ZM179.294 116.328L176.308 116.612L176.311 116.646L176.315 116.679L179.294 116.328ZM178.43 114.48L176.216 116.504L178.43 114.48ZM176.51 113.4L175.843 116.325L175.87 116.331L175.898 116.337L176.51 113.4ZM172.094 112.392L171.426 115.317L171.427 115.317L172.094 112.392ZM165.998 107.544L168.825 106.54L165.998 107.544ZM165.278 103.32L162.279 103.388L162.279 103.399L162.279 103.41L165.278 103.32ZM165.278 99.72L162.281 99.5989L162.28 99.6189L162.279 99.6389L165.278 99.72ZM167.582 92.712L165.404 90.6494L165.398 90.6555L165.392 90.6617L167.582 92.712ZM174.35 90.168H177.35V86.9757L174.164 87.1738L174.35 90.168ZM174.35 96.192L175.274 99.0463L177.35 98.3745V96.192H174.35ZM173.054 97.008L170.79 95.0395L170.765 95.0681L170.741 95.0974L173.054 97.008ZM172.478 98.376L169.51 97.9395L169.504 97.9824L169.499 98.0255L172.478 98.376ZM172.478 103.32L169.499 103.671L169.5 103.681L169.501 103.692L172.478 103.32ZM173.15 105.096L170.665 106.777L170.677 106.794L170.689 106.811L173.15 105.096ZM174.926 106.152L174.294 109.085L174.302 109.086L174.31 109.088L174.926 106.152ZM178.814 106.968L179.437 104.033L179.43 104.032L178.814 106.968ZM183.182 108.816L181.355 111.195L181.374 111.21L181.393 111.224L183.182 108.816ZM186.542 116.328L183.544 116.444L183.545 116.458L186.542 116.328ZM186.542 118.68L189.54 118.8L186.542 118.68ZM186.494 119.832L183.497 119.702L183.497 119.711L186.494 119.832ZM184.19 126.888L181.989 124.849L181.988 124.85L184.19 126.888ZM179.342 105L176.345 104.87L176.209 108H179.342V105ZM179.39 98.376L176.391 98.4617L176.392 98.484L176.393 98.5063L179.39 98.376ZM178.886 96.984L176.581 98.9046L176.602 98.9288L176.622 98.9525L178.886 96.984ZM177.518 96.168H174.518V98.4648L176.735 99.0641L177.518 96.168ZM177.518 90.168L177.725 87.1751L174.518 86.9534V90.168H177.518ZM184.094 92.736L181.881 94.761L181.886 94.7669L181.892 94.7728L184.094 92.736ZM186.35 99.72L183.353 99.8411L183.353 99.8503L183.353 99.8594L186.35 99.72ZM186.35 102.24L183.352 102.143L183.351 102.167L183.351 102.192L186.35 102.24ZM186.254 105V108H189.089L189.249 105.17L186.254 105ZM174.556 126.439C171.935 126.259 170.599 125.551 169.928 124.826L165.524 128.902C167.638 131.185 170.717 132.189 174.144 132.425L174.556 126.439ZM169.94 124.839C169.246 124.081 168.582 122.566 168.468 119.711L162.473 119.952C162.614 123.466 163.454 126.639 165.513 128.889L169.94 124.839ZM168.469 119.738C168.454 119.263 168.446 118.734 168.446 118.152H162.446C162.446 118.786 162.454 119.377 162.472 119.926L168.469 119.738ZM168.446 118.152C168.446 117.579 168.461 117.016 168.49 116.462L162.498 116.146C162.463 116.808 162.446 117.477 162.446 118.152H168.446ZM168.49 116.458C168.518 115.917 168.565 115.454 168.626 115.063L162.698 114.137C162.599 114.77 162.534 115.443 162.498 116.15L168.49 116.458ZM165.662 117.6H172.43V111.6H165.662V117.6ZM169.435 114.436C169.368 115.643 169.327 116.836 169.31 118.014L175.31 118.098C175.325 117.004 175.364 115.893 175.426 114.764L169.435 114.436ZM169.31 118.014C169.293 119.243 169.336 120.401 169.446 121.48L175.415 120.872C175.332 120.063 175.295 119.141 175.31 118.098L169.31 118.014ZM169.441 121.432C169.535 122.525 169.916 123.599 170.677 124.513L175.287 120.671C175.337 120.732 175.375 120.799 175.399 120.86C175.422 120.919 175.421 120.945 175.419 120.92L169.441 121.432ZM170.767 124.615C171.534 125.455 172.491 125.977 173.473 126.277L175.227 120.539C175.139 120.512 175.108 120.493 175.113 120.496C175.116 120.497 175.126 120.504 175.142 120.517C175.158 120.53 175.177 120.547 175.198 120.569L170.767 124.615ZM171.35 123.408V129.432H177.35V123.408H171.35ZM180.518 129.432V123.384H174.518V129.432H180.518ZM178.493 126.221C179.456 125.89 180.354 125.328 181.055 124.479L176.429 120.657C176.469 120.609 176.511 120.574 176.544 120.552C176.575 120.531 176.581 120.534 176.543 120.547L178.493 126.221ZM181.094 124.43C181.783 123.56 182.153 122.556 182.274 121.527L176.315 120.825C176.31 120.863 176.306 120.859 176.319 120.826C176.333 120.791 176.357 120.748 176.39 120.706L181.094 124.43ZM182.274 121.527C182.347 120.899 182.394 120.277 182.413 119.659L176.415 119.477C176.402 119.915 176.369 120.365 176.315 120.825L182.274 121.527ZM182.409 119.744C182.448 119.085 182.448 118.429 182.409 117.779L176.42 118.141C176.444 118.547 176.445 118.963 176.419 119.392L182.409 119.744ZM182.413 117.872C182.394 117.24 182.348 116.608 182.274 115.977L176.315 116.679C176.368 117.136 176.402 117.592 176.415 118.048L182.413 117.872ZM182.281 116.044C182.147 114.644 181.539 113.434 180.644 112.456L176.216 116.504C176.29 116.586 176.311 116.63 176.312 116.633C176.314 116.635 176.312 116.632 176.31 116.625C176.308 116.619 176.308 116.614 176.308 116.612L182.281 116.044ZM180.644 112.456C179.692 111.414 178.484 110.747 177.122 110.463L175.898 116.337C176.072 116.373 176.144 116.426 176.216 116.504L180.644 112.456ZM177.178 110.475L172.762 109.467L171.427 115.317L175.843 116.325L177.178 110.475ZM172.763 109.467C171.389 109.153 170.541 108.714 170.034 108.29L166.186 112.894C167.631 114.102 169.44 114.863 171.426 115.317L172.763 109.467ZM170.034 108.29C169.476 107.824 169.08 107.258 168.825 106.54L163.171 108.548C163.78 110.262 164.792 111.728 166.186 112.894L170.034 108.29ZM168.825 106.54C168.519 105.679 168.318 104.59 168.277 103.23L162.279 103.41C162.335 105.25 162.613 106.977 163.171 108.548L168.825 106.54ZM168.277 103.252C168.262 102.564 168.254 101.964 168.254 101.448H162.254C162.254 102.02 162.263 102.668 162.279 103.388L168.277 103.252ZM168.254 101.448C168.254 100.917 168.262 100.368 168.277 99.801L162.279 99.6389C162.263 100.256 162.254 100.859 162.254 101.448H168.254ZM168.276 99.8411C168.39 97.0211 169.061 95.5217 169.772 94.7623L165.392 90.6617C163.287 92.9103 162.423 96.0829 162.281 99.5989L168.276 99.8411ZM169.761 94.7746C170.455 94.041 171.84 93.3299 174.536 93.1622L174.164 87.1738C170.685 87.3901 167.557 88.375 165.404 90.6494L169.761 94.7746ZM171.35 90.168V96.192H177.35V90.168H171.35ZM173.427 93.3377C172.454 93.6523 171.526 94.1935 170.79 95.0395L175.318 98.9765C175.298 98.9991 175.278 99.0186 175.259 99.0346C175.241 99.0505 175.226 99.061 175.217 99.0667C175.198 99.0783 175.211 99.0666 175.274 99.0463L173.427 93.3377ZM170.741 95.0974C170.038 95.9486 169.657 96.9373 169.51 97.9395L175.446 98.8125C175.453 98.7632 175.459 98.7609 175.447 98.7902C175.434 98.8218 175.408 98.869 175.367 98.9186L170.741 95.0974ZM169.499 98.0255C169.389 98.9593 169.334 99.9003 169.334 100.848H175.334C175.334 100.132 175.375 99.4247 175.458 98.7265L169.499 98.0255ZM169.334 100.848C169.334 101.796 169.389 102.737 169.499 103.671L175.458 102.969C175.375 102.271 175.334 101.564 175.334 100.848H169.334ZM169.501 103.692C169.641 104.81 170.038 105.849 170.665 106.777L175.635 103.415C175.527 103.255 175.475 103.11 175.455 102.948L169.501 103.692ZM170.689 106.811C171.607 108.129 172.963 108.798 174.294 109.085L175.559 103.219C175.403 103.186 175.368 103.157 175.403 103.177C175.422 103.188 175.455 103.211 175.495 103.248C175.536 103.285 175.576 103.33 175.611 103.381L170.689 106.811ZM174.31 109.088L178.198 109.904L179.43 104.032L175.542 103.216L174.31 109.088ZM178.191 109.903C179.698 110.223 180.702 110.694 181.355 111.195L185.01 106.437C183.454 105.242 181.546 104.481 179.437 104.033L178.191 109.903ZM181.393 111.224C182.089 111.741 182.57 112.36 182.886 113.116L188.422 110.804C187.682 109.032 186.516 107.555 184.971 106.408L181.393 111.224ZM182.886 113.116C183.251 113.99 183.492 115.083 183.544 116.444L189.54 116.212C189.465 114.277 189.113 112.458 188.422 110.804L182.886 113.116ZM183.545 116.458C183.559 116.779 183.566 117.12 183.566 117.48H189.566C189.566 117.04 189.557 116.613 189.539 116.198L183.545 116.458ZM183.566 117.48C183.566 117.84 183.559 118.2 183.545 118.56L189.54 118.8C189.557 118.36 189.566 117.92 189.566 117.48H183.566ZM183.545 118.56C183.529 118.957 183.513 119.337 183.497 119.702L189.491 119.962C189.507 119.591 189.524 119.203 189.54 118.8L183.545 118.56ZM183.497 119.711C183.382 122.549 182.71 124.072 181.989 124.849L186.391 128.927C188.487 126.664 189.35 123.483 189.492 119.952L183.497 119.711ZM181.988 124.85C181.328 125.563 179.99 126.271 177.33 126.438L177.706 132.426C181.158 132.209 184.268 131.221 186.392 128.926L181.988 124.85ZM182.339 105.13C182.389 103.997 182.421 102.864 182.438 101.731L176.438 101.645C176.423 102.72 176.392 103.795 176.345 104.87L182.339 105.13ZM182.438 101.731C182.455 100.569 182.438 99.4075 182.387 98.2457L176.393 98.5063C176.438 99.5525 176.454 100.599 176.438 101.645L182.438 101.731ZM182.389 98.2903C182.356 97.1454 181.992 95.9838 181.15 95.0155L176.622 98.9525C176.537 98.8544 176.472 98.7404 176.431 98.6293C176.393 98.5233 176.391 98.4585 176.391 98.4617L182.389 98.2903ZM181.191 95.0634C180.394 94.1071 179.351 93.5559 178.301 93.2719L176.735 99.0641C176.807 99.0833 176.808 99.0927 176.767 99.0685C176.722 99.0416 176.652 98.9888 176.581 98.9046L181.191 95.0634ZM180.518 96.168V90.168H174.518V96.168H180.518ZM177.311 93.1609C179.914 93.3408 181.227 94.0465 181.881 94.761L186.308 90.711C184.209 88.4175 181.138 87.4112 177.725 87.1751L177.311 93.1609ZM181.892 94.7728C182.575 95.5119 183.238 97.0038 183.353 99.8411L189.348 99.5989C189.206 96.1002 188.365 92.9361 186.297 90.6992L181.892 94.7728ZM183.353 99.8594C183.381 100.443 183.382 101.199 183.352 102.143L189.349 102.337C189.382 101.297 189.384 100.373 189.347 99.5806L183.353 99.8594ZM183.351 102.192C183.335 103.15 183.304 104.029 183.259 104.83L189.249 105.17C189.3 104.275 189.333 103.314 189.35 102.288L183.351 102.192ZM186.254 102H179.342V108H186.254V102Z" fill="url(#paint0_linear_1084_1601)" mask="url(#path-1-outside-1_1084_1601)"/>
<defs>
<linearGradient id="paint0_linear_1084_1601" x1="-2" y1="-16" x2="226.06" y2="1.22093" gradientUnits="userSpaceOnUse">
<stop stop-color="#9D4EDD"/>
<stop offset="0.470368" stop-color="#5A189A"/>
<stop offset="1" stop-color="#10002B"/>
</linearGradient>
</defs>
</svg>
