<svg width="32" height="32" viewBox="0 0 32 32" fill="none" xmlns="http://www.w3.org/2000/svg">
<path d="M8.8309 31.3769L2.10159 26.4424V1.43735L15.4548 12.8601C15.4551 12.8603 15.4553 12.8605 15.4555 12.8607C15.6134 12.9963 15.8146 13.0705 16.0222 13.0705C16.2301 13.0705 16.4316 12.9961 16.5896 12.8601L19.8202 10.0823C19.8204 10.0822 19.8205 10.0821 19.8206 10.082C21.0465 9.03137 22.2861 7.96295 23.5394 6.8767C24.7906 5.79225 26.0281 4.73303 27.2517 3.69904C28.1715 2.92376 29.0538 2.17065 29.8984 1.4397V28.1211L23.1659 31.146V16.7005C23.1684 16.5283 23.1195 16.3595 23.0257 16.2153C22.9307 16.0694 22.7941 15.9556 22.6342 15.8882C22.4743 15.8207 22.2979 15.8025 22.1277 15.8356C21.9616 15.8679 21.8083 15.9478 21.6866 16.0659C20.1444 17.4817 18.12 18.2688 16.0175 18.2688C13.9245 18.2688 11.909 17.4888 10.3694 16.0852L10.355 16.0673L10.3382 16.0465L10.3192 16.0275C10.1962 15.9045 10.0394 15.8214 9.86911 15.7883C9.69887 15.7552 9.5225 15.7735 9.36261 15.8409C9.20268 15.9084 9.06617 16.0221 8.97116 16.1681L9.39022 16.4408L8.97116 16.1681C8.87734 16.3122 8.82842 16.4811 8.8309 16.6533V31.3769ZM8.96103 31.631L8.96204 31.633L8.96101 31.631L8.9607 31.6303L8.96103 31.631Z" fill="#5A189A" stroke="url(#paint0_linear_2174_5016)"/>
<path d="M25.2815 5.43728C25.5037 9.02539 25.5767 12.623 25.5989 16.2174L25.5545 16.0661C26.0814 17.0112 26.5925 17.9563 27.1067 18.9014C27.1067 21.4625 27.0432 24.0205 26.9321 26.5785C26.8877 27.4227 26.8591 28.267 26.7988 29.0986C26.7385 28.2575 26.7099 27.4133 26.6655 26.5785C26.5544 24.0583 26.5068 21.5129 26.4909 18.9801L26.529 19.125C26.0179 18.202 25.5069 17.279 25.0085 16.3497L24.9704 16.2804V16.2048C24.9704 12.6104 25.0593 9.01279 25.2879 5.42468L25.2815 5.43728Z" fill="#FFC14D"/>
<path d="M7.15971 5.43726C7.3819 9.02536 7.45491 12.6229 7.47713 16.2173C7.48234 16.2428 7.48162 16.2691 7.47502 16.2942C7.46842 16.3193 7.45611 16.3426 7.43904 16.3622C6.94386 17.3073 6.42963 18.2146 5.91857 19.1376L5.95666 18.9927C5.95666 21.5129 5.89318 24.0582 5.78208 26.591C5.74081 27.4353 5.70907 28.2796 5.64876 29.1112C5.58845 28.2701 5.55988 27.4258 5.51544 26.591C5.40434 24.033 5.35673 21.4751 5.34086 18.9139C5.85509 17.9689 6.36614 17.0238 6.89307 16.0787L6.85498 16.2268C6.85498 12.6324 6.94386 9.03482 7.1724 5.44671L7.15971 5.43726Z" fill="#00CAFF"/>
<path d="M24.9419 4.99941L16.1365 10.1406H16.1333L7.24224 5.14117L16.0476 0L24.9419 4.99941Z" fill="#9D4EDD"/>
<path d="M24.9419 4.99939L25.0276 15.1368L16.2159 20.2843L16.1333 10.1406H16.1365L24.9419 4.99939Z" fill="#5A189A"/>
<path d="M16.1333 10.1405L16.2159 20.2843L7.32794 15.2817L7.24224 5.14111L16.1333 10.1405Z" fill="#5A189A"/>
<path d="M16.1301 10.1532L16.1714 15.2093L11.7402 12.7175L11.6957 7.66138L16.1301 10.1532Z" fill="#7B2CBF"/>
<path d="M16.1333 10.1374L16.1397 15.2093L20.5614 12.6702L20.5582 7.56055L16.1333 10.1374Z" fill="#7B2CBF"/>
<path d="M20.5614 12.6419L16.1714 15.2061L11.737 12.7143L16.127 10.15L20.5614 12.6419Z" fill="#9D4EDD"/>
<path d="M16.146 10.1689L11.7148 7.67708L16.1048 5.11279" fill="#7B2CBF"/>
<path d="M16.146 10.1689H16.1492L20.5392 7.60462L16.1048 5.11279" fill="#7B2CBF"/>
<path d="M11.7592 7.66138C11.9669 9.30208 11.9573 10.9627 11.7306 12.6009C11.5214 10.9603 11.531 9.29949 11.7592 7.66138Z" fill="#00CAFF"/>
<path d="M20.6154 7.42505C20.8254 9.06652 20.8179 10.7282 20.5931 12.3678C20.3815 10.7264 20.389 9.06448 20.6154 7.42505Z" fill="#FFC14D"/>
<path d="M16.1048 5.16956C16.2608 6.81385 16.2534 8.46941 16.0825 10.1123C15.928 8.46789 15.9355 6.81249 16.1048 5.16956Z" fill="#5A189A"/>
<path d="M15.8857 10.2855C14.6516 11.1944 13.3236 11.9705 11.9243 12.6009C13.1579 11.6914 14.4859 10.9152 15.8857 10.2855Z" fill="#5A189A"/>
<path d="M16.3079 10.2319C17.7145 10.8582 19.0499 11.6312 20.2916 12.5379C18.885 11.9117 17.5496 11.1387 16.3079 10.2319Z" fill="#5A189A"/>
<defs>
<linearGradient id="paint0_linear_2174_5016" x1="2.75346" y1="3.12841" x2="31.363" y2="4.38971" gradientUnits="userSpaceOnUse">
<stop stop-color="#9D4EDD"/>
<stop offset="1" stop-color="#5A189A"/>
</linearGradient>
</defs>
</svg>
