<svg width="48" height="48" viewBox="0 0 48 48" fill="none" xmlns="http://www.w3.org/2000/svg">
<g clip-path="url(#clip0_730_15174)">
<path d="M16 24C16 24.5304 16.2107 25.0391 16.5858 25.4142C16.9609 25.7893 17.4696 26 18 26C18.5304 26 19.0391 25.7893 19.4142 25.4142C19.7893 25.0391 20 24.5304 20 24C20 23.4696 19.7893 22.9609 19.4142 22.5858C19.0391 22.2107 18.5304 22 18 22C17.4696 22 16.9609 22.2107 16.5858 22.5858C16.2107 22.9609 16 23.4696 16 24Z" stroke="#9D4EDD" stroke-width="2" stroke-linecap="round" stroke-linejoin="round"/>
<path d="M28 24C28 24.5304 28.2107 25.0391 28.5858 25.4142C28.9609 25.7893 29.4696 26 30 26C30.5304 26 31.0391 25.7893 31.4142 25.4142C31.7893 25.0391 32 24.5304 32 24C32 23.4696 31.7893 22.9609 31.4142 22.5858C31.0391 22.2107 30.5304 22 30 22C29.4696 22 28.9609 22.2107 28.5858 22.5858C28.2107 22.9609 28 23.4696 28 24Z" stroke="#9D4EDD" stroke-width="2" stroke-linecap="round" stroke-linejoin="round"/>
<path d="M30.9999 34C30.9999 36 33.9999 40 34.9999 40C37.9999 40 40.6659 36.666 41.9999 34C43.3339 30.666 42.9999 22.334 38.9999 11C36.0859 8.97 32.9999 8.32 29.9999 8L28.0559 11.846C25.3737 11.383 22.6321 11.383 19.9499 11.846L17.9999 8C14.9999 8.32 11.9139 8.97 8.9999 11C4.9999 22.334 4.6659 30.666 5.9999 34C7.3339 36.666 9.9999 40 12.9999 40C13.9999 40 16.9999 36 16.9999 34" stroke="#9D4EDD" stroke-width="2" stroke-linecap="round" stroke-linejoin="round"/>
<path d="M14 33C21 35 27 35 34 33" stroke="#9D4EDD" stroke-width="2" stroke-linecap="round" stroke-linejoin="round"/>
</g>
<defs>
<clipPath id="clip0_730_15174">
<rect width="48" height="48" fill="white"/>
</clipPath>
</defs>
</svg>
