<svg width="81" height="90" viewBox="0 0 81 90" fill="none" xmlns="http://www.w3.org/2000/svg">
<path d="M80.1599 79.8265L80.1516 79.8299L80.1434 79.8336L60.5027 88.6582L60.502 88.6585C60.4199 88.6955 60.3296 88.7115 60.2394 88.7049C60.1492 88.6983 60.0624 88.6693 59.9869 88.6209L59.7169 89.0418L59.9869 88.6209C59.9114 88.5725 59.8498 88.5063 59.8074 88.4287C59.7651 88.3512 59.7432 88.2646 59.7435 88.1768V88.1751V46.9633C59.749 46.6574 59.6626 46.3569 59.4957 46.1004C59.3276 45.8422 59.0859 45.6406 58.8021 45.5209C58.5183 45.4012 58.2051 45.3687 57.9028 45.4275C57.6042 45.4856 57.3292 45.6302 57.1126 45.8435C52.6059 49.9857 46.6889 52.2876 40.5446 52.2876C34.4097 52.2876 28.5013 49.9927 23.9971 45.8623L23.9135 45.7585L23.8966 45.7377L23.8777 45.7187C23.6598 45.5009 23.3817 45.3534 23.0793 45.2946C22.777 45.2358 22.4638 45.2683 22.1801 45.388C21.8963 45.5077 21.6545 45.7093 21.4865 45.9675C21.3195 46.224 21.2331 46.5245 21.2387 46.8304V88.9712C21.2381 89.069 21.2104 89.1651 21.1583 89.2488C21.106 89.3328 21.031 89.4014 20.9411 89.4464C20.8513 89.4915 20.7503 89.5112 20.6496 89.503C20.5493 89.4949 20.4535 89.4595 20.3727 89.4013C20.3723 89.401 20.3719 89.4007 20.3716 89.4005L0.720643 74.9909C0.719914 74.9903 0.719185 74.9898 0.718459 74.9892C0.650948 74.9378 0.5964 74.8721 0.558671 74.7972C0.520738 74.7219 0.500735 74.6392 0.5 74.5554V3.24542C0.501152 3.14464 0.531093 3.04596 0.586749 2.96083C0.642746 2.87518 0.722583 2.80665 0.817283 2.7638C0.912016 2.72093 1.01736 2.70571 1.1208 2.72014C1.22393 2.73452 1.32037 2.7777 1.39897 2.84412C1.39919 2.84432 1.39942 2.84451 1.39965 2.8447L39.5534 35.4826C39.8327 35.723 40.1895 35.8549 40.558 35.8549C40.9266 35.8549 41.2833 35.723 41.5627 35.4826L50.6502 27.6688C54.0969 24.7148 57.5824 21.7106 61.1065 18.6563C64.6284 15.6039 68.1115 12.6224 71.5559 9.71177C74.3597 7.34865 77.0388 5.05916 79.5931 2.84331C79.6718 2.77711 79.7683 2.73417 79.8714 2.72001C79.9753 2.70575 80.081 2.72136 80.1759 2.7648C80.2707 2.80821 80.3505 2.87743 80.4062 2.96374C80.4618 3.05003 80.4911 3.14995 80.4911 3.2517V3.25189V79.347C80.4894 79.449 80.4578 79.5487 80.3996 79.6338C80.3409 79.7195 80.2577 79.7868 80.1599 79.8265Z" fill="#5A189A" stroke="url(#paint0_linear_1084_1501)"/>
<path d="M66.6 15.2923C67.2249 25.3838 67.4303 35.502 67.4928 45.6112L67.3678 45.186C68.8497 47.844 70.2871 50.502 71.7334 53.16C71.7334 60.3632 71.5548 67.5575 71.2423 74.7518C71.1174 77.1263 71.037 79.5008 70.8674 81.8398C70.6978 79.4742 70.6174 77.0997 70.4924 74.7518C70.18 67.6638 70.0461 60.5049 70.0014 53.3815L70.1085 53.789C68.6712 51.193 67.2339 48.5971 65.8322 45.9834L65.7251 45.7884V45.5758C65.7251 35.4665 65.9751 25.3484 66.6179 15.2568L66.6 15.2923Z" fill="#FFC14D"/>
<path d="M14.6321 15.292C15.257 25.3835 15.4624 35.5017 15.5249 45.611C15.5395 45.6825 15.5375 45.7564 15.5189 45.8271C15.5004 45.8977 15.4657 45.9632 15.4177 46.0185C14.025 48.6765 12.5788 51.2282 11.1414 53.8242L11.2486 53.4166C11.2486 60.5046 11.07 67.6635 10.7575 74.787C10.6415 77.1615 10.5522 79.5359 10.3826 81.875C10.213 79.5094 10.1326 77.1349 10.0076 74.787C9.69515 67.5926 9.56124 60.3983 9.5166 53.1951C10.9629 50.5371 12.4002 47.8791 13.8822 45.2211L13.7751 45.6375C13.7751 35.5283 14.025 25.4101 14.6678 15.3186L14.6321 15.292Z" fill="#00CAFF"/>
<path d="M65.6445 14.0608L40.8794 28.5204H40.8704L15.8643 14.4595L40.6294 0L65.6445 14.0608Z" fill="#9D4EDD"/>
<path d="M65.6447 14.0605L65.8857 42.5721L41.1027 57.0493L40.8706 28.5201H40.8795L65.6447 14.0605Z" fill="#5A189A"/>
<path d="M40.8704 28.5208L41.1025 57.05L16.1053 42.9803L15.8643 14.46L40.8704 28.5208Z" fill="#5A189A"/>
<path d="M40.8615 28.5561L40.9775 42.7764L28.5146 35.7682L28.3896 21.5479L40.8615 28.5561Z" fill="#7B2CBF"/>
<path d="M40.8706 28.5112L40.8885 42.7758L53.3246 35.6346L53.3157 21.2637L40.8706 28.5112Z" fill="#7B2CBF"/>
<path d="M53.3246 35.5551L40.9777 42.7672L28.5059 35.7589L40.8527 28.5469L53.3246 35.5551Z" fill="#9D4EDD"/>
<path d="M40.9063 28.6002L28.4434 21.5919L40.7902 14.3799" fill="#7B2CBF"/>
<path d="M40.9061 28.6002H40.915L53.2619 21.3882L40.79 14.3799" fill="#7B2CBF"/>
<path d="M28.5684 21.5479C29.1524 26.1623 29.1254 30.8328 28.4881 35.4404C27.8995 30.8261 27.9265 26.1551 28.5684 21.5479Z" fill="#00CAFF"/>
<path d="M53.4762 20.8828C54.067 25.4994 54.0459 30.173 53.4137 34.7842C52.8184 30.1678 52.8395 25.4937 53.4762 20.8828Z" fill="#FFC14D"/>
<path d="M40.79 14.5391C41.229 19.1637 41.208 23.8199 40.7275 28.4404C40.2929 23.8156 40.3139 19.1598 40.79 14.5391Z" fill="#5A189A"/>
<path d="M40.1743 28.9277C36.7033 31.4838 32.9684 33.6668 29.0327 35.4398C32.5024 32.8817 36.2375 30.6986 40.1743 28.9277Z" fill="#5A189A"/>
<path d="M41.3613 28.7773C45.3173 30.5386 49.0732 32.7127 52.5654 35.2629C48.6095 33.5016 44.8536 31.3275 41.3613 28.7773Z" fill="#5A189A"/>
<defs>
<linearGradient id="paint0_linear_1084_1501" x1="3.23964" y1="8.79905" x2="83.704" y2="12.3465" gradientUnits="userSpaceOnUse">
<stop stop-color="#9D4EDD"/>
<stop offset="1" stop-color="#5A189A"/>
</linearGradient>
</defs>
</svg>
