<svg width="48" height="48" viewBox="0 0 48 48" fill="none" xmlns="http://www.w3.org/2000/svg">
<g clip-path="url(#clip0_730_15182)">
<path d="M39.24 22.86C43.94 22.86 47.76 26.66 47.98 31.4L48 31.82V39.02C48 43.82 44.3 47.76 39.66 47.98L39.24 48H8.76C6.4854 47.9707 4.30923 47.0676 2.68221 45.4778C1.05518 43.888 0.10197 41.7333 0.02 39.46L0 39.04V31.84C0 27.04 3.7 23.1 8.34 22.88H39.24V22.86ZM36.94 30.14C35.86 30.14 34.98 30.48 34.28 31.14C33.68 31.74 33.34 32.5 33.28 33.38L33.26 33.78V39.38C33.26 40.56 33.56 41.5 34.18 42.18C34.82 42.86 35.68 43.2 36.76 43.2C37.96 43.2 38.88 42.88 39.48 42.24C40.02 41.66 40.32 40.84 40.38 39.78L40.4 39.36V38.72H37.9V39.28C37.9 40.02 37.82 40.48 37.66 40.7C37.5 40.92 37.22 41.02 36.82 41.02C36.42 41.02 36.16 40.9 36 40.64C35.86 40.44 35.8 40.08 35.76 39.6V36.94H40.4V33.8C40.4 32.62 40.1 31.72 39.5 31.1C38.9 30.46 38.06 30.16 36.94 30.16V30.14ZM18.66 30.44H16.24V40.84C16.24 41.56 16.38 42.12 16.66 42.48C16.94 42.86 17.36 43.04 17.92 43.04C18.38 43.04 18.86 42.92 19.34 42.64C19.74 42.44 20.1 42.16 20.46 41.78L20.74 41.5V42.86H23.16V30.44H20.76V39.88C20.52 40.14 20.26 40.36 19.98 40.54C19.7869 40.6835 19.5591 40.7732 19.32 40.8C19.08 40.8 18.92 40.74 18.82 40.6C18.7383 40.4742 18.6901 40.3296 18.68 40.18V30.44H18.66ZM27.46 26.04H25V42.84H27.44V41.9C27.709 42.2536 28.0573 42.5391 28.4568 42.7336C28.8562 42.9282 29.2957 43.0262 29.74 43.02C30.48 43.02 31.04 42.78 31.4 42.32C31.74 41.92 31.92 41.36 31.96 40.66L31.98 40.3V33.4C31.98 32.4 31.78 31.6 31.38 31.08C30.98 30.56 30.38 30.28 29.62 30.28C29.22 30.28 28.86 30.38 28.48 30.58C28.22 30.74 27.96 30.94 27.7 31.18L27.44 31.44V26.04H27.46ZM15.16 26.04H6.76V28.48H9.6V42.86H12.34V28.46H15.16V26.02V26.04ZM28.46 32.26C28.8 32.26 29.06 32.36 29.22 32.58C29.36 32.76 29.44 32.98 29.46 33.3V39.94C29.46 40.34 29.4 40.64 29.26 40.8C29.12 41 28.92 41.08 28.62 41.08C28.2536 41.0801 27.9017 40.9364 27.64 40.68L27.44 40.48V32.76C27.5882 32.6021 27.7645 32.4732 27.96 32.38C28.1158 32.3037 28.2865 32.2628 28.46 32.26ZM36.84 32.3C37.2 32.3 37.48 32.42 37.64 32.64C37.78 32.82 37.86 33.1 37.9 33.46V35.02H35.76V33.76C35.76 33.24 35.84 32.86 36 32.64C36.18 32.42 36.46 32.3 36.84 32.3ZM23.7 4.52C24.84 4.52 25.76 4.86 26.5 5.52C27.14 6.1 27.5 6.84 27.56 7.72V15.14C27.5913 15.6474 27.5149 16.1557 27.3356 16.6314C27.1564 17.1071 26.8784 17.5395 26.52 17.9C25.8 18.56 24.82 18.9 23.58 18.9C22.38 18.9 21.44 18.54 20.72 17.86C20.08 17.26 19.72 16.46 19.66 15.46L19.64 15.08V8C19.64 6.94 20 6.08 20.74 5.46C21.48 4.84 22.46 4.52 23.7 4.52ZM32.52 4.86V15.36C32.52 15.68 32.58 15.92 32.7 16.06C32.8 16.2 33 16.26 33.26 16.26C33.46 16.26 33.7 16.18 34.02 15.98C34.32 15.78 34.62 15.54 34.86 15.26V4.86H37.6V18.54H34.86V17.04C34.36 17.6 33.84 18.02 33.28 18.3C32.74 18.6 32.22 18.74 31.7 18.74C31.06 18.74 30.6 18.54 30.26 18.14C29.96 17.74 29.8 17.12 29.8 16.3V4.86H32.52ZM12.2 0L14.2 7.4H14.4L16.26 0H19.4L15.8 10.86V18.54H12.78V11.2L9.1 0H12.2ZM23.58 6.9C23.2907 6.8873 23.0066 6.97964 22.78 7.16C22.6093 7.30194 22.4956 7.50083 22.46 7.72V15.34C22.46 15.72 22.54 16 22.74 16.22C22.94 16.42 23.22 16.52 23.58 16.52C23.7406 16.5284 23.9013 16.5043 24.0525 16.4494C24.2037 16.3944 24.3423 16.3096 24.46 16.2C24.64 16.04 24.74 15.82 24.78 15.56V7.9C24.7879 7.76027 24.763 7.62062 24.7075 7.49216C24.6519 7.36371 24.5672 7.24997 24.46 7.16C24.2064 6.97247 23.8948 6.8804 23.58 6.9Z" fill="#9D4EDD"/>
</g>
<defs>
<clipPath id="clip0_730_15182">
<rect width="48" height="48" fill="white"/>
</clipPath>
</defs>
</svg>
