<svg width="32" height="32" viewBox="0 0 32 32" fill="none" xmlns="http://www.w3.org/2000/svg">
<path d="M28.8633 3.36309C28.8527 3.3118 28.8276 3.26461 28.7911 3.22707C28.7545 3.18954 28.708 3.16322 28.657 3.15121C25.2583 2.31996 17.407 5.28184 13.1489 9.53684C12.39 10.2895 11.698 11.1067 11.0808 11.9793C9.76829 11.8606 8.45579 11.9606 7.33829 12.4481C4.18267 13.8356 3.26454 17.4593 3.00829 19.015C2.99441 19.1002 3.00034 19.1875 3.02562 19.2701C3.05091 19.3527 3.09487 19.4283 3.1541 19.4912C3.21332 19.554 3.28623 19.6024 3.36716 19.6325C3.44809 19.6627 3.53488 19.6738 3.62079 19.665L8.68767 19.1087C8.69117 19.4909 8.71412 19.8726 8.75642 20.2525C8.78286 20.515 8.9 20.7601 9.08767 20.9456L11.0495 22.9075C11.2352 23.0953 11.4805 23.2124 11.7433 23.2387C12.1208 23.2808 12.5003 23.3038 12.8802 23.3075L12.3245 28.37C12.3159 28.4558 12.327 28.5424 12.3572 28.6232C12.3873 28.704 12.4357 28.7768 12.4984 28.8359C12.5612 28.8951 12.6367 28.939 12.7192 28.9643C12.8016 28.9896 12.8888 28.9956 12.9739 28.9818C14.5302 28.7318 18.1614 27.8137 19.5408 24.6587C20.0283 23.54 20.1283 22.2343 20.0158 20.9281C20.891 20.3114 21.7105 19.6194 22.4652 18.86C26.7389 14.61 29.682 6.93121 28.8633 3.36309ZM18.6664 13.3543C18.2931 12.9811 18.0389 12.5056 17.9359 11.9879C17.8328 11.4702 17.8857 10.9336 18.0876 10.4459C18.2896 9.9582 18.6317 9.54136 19.0706 9.24809C19.5094 8.95482 20.0254 8.79828 20.5533 8.79828C21.0811 8.79828 21.5971 8.95482 22.036 9.24809C22.4749 9.54136 22.817 9.9582 23.019 10.4459C23.2209 10.9336 23.2737 11.4702 23.1707 11.9879C23.0677 12.5056 22.8135 12.9811 22.4402 13.3543C22.1926 13.6025 21.8985 13.7993 21.5747 13.9336C21.2509 14.0679 20.9038 14.1371 20.5533 14.1371C20.2028 14.1371 19.8557 14.0679 19.5319 13.9336C19.2081 13.7993 18.914 13.6025 18.6664 13.3543Z" stroke="#5A189A" stroke-width="2.5" stroke-linecap="round" stroke-linejoin="round"/>
<path d="M6.8525 22C6.22945 22.0765 5.6498 22.3589 5.20563 22.8025C4.10438 23.9075 4 28 4 28C4 28 8.095 27.8956 9.19687 26.7931C9.64224 26.3496 9.92517 25.769 10 25.145" stroke="#5A189A" stroke-width="2.5" stroke-linecap="round" stroke-linejoin="round"/>
</svg>
